<svg xmlns="http://www.w3.org/2000/svg" width="133.481" height="130.07" viewBox="0 0 133.481 130.07">
  <g id="python" transform="translate(-33 -54.569)">
    <g id="Group_29" data-name="Group 29" transform="translate(33.169 67.251)">
      <path id="Path_1178" data-name="Path 1178" d="M40.966,416.8c-1.045-.64-3.152-1.888-4.685-2.8a27.147,27.147,0,0,1-2.781-1.77c0-.152,9.337-5.73,9.607-5.73a17.856,17.856,0,0,1,2.258,1.23c1.112.691,3.152,1.9,4.5,2.7,1.348.809,2.545,1.567,2.663,1.685.152.2-.118.421-1.449,1.213-.91.539-3.034,1.786-4.719,2.8a28.965,28.965,0,0,1-3.286,1.82A16.1,16.1,0,0,1,40.966,416.8Z" transform="translate(-33.5 -300.556)" fill="#f5f5f5"/>
      <path id="Path_1179" data-name="Path 1179" d="M374.1,341.118c-.287-.185-2.292-1.348-4.466-2.6-3.944-2.258-4.5-2.713-3.607-2.966a16.972,16.972,0,0,0,2.781-1.517c.421-.253,1.331-.775,2.022-1.18.691-.388,1.888-1.1,2.629-1.534a6.929,6.929,0,0,1,1.719-.826,11.177,11.177,0,0,1,2.258,1.112c1.045.624,2.157,1.264,2.461,1.433a1.18,1.18,0,0,0,.758.219c.118-.067.152-.051.067.017a14.151,14.151,0,0,0,3.388,2.124c1.011.438.758.792-1.618,2.157C375.109,341.842,375.193,341.809,374.1,341.118Z" transform="translate(-253.695 -250.173)" fill="#f5f5f5"/>
      <path id="Path_1180" data-name="Path 1180" d="M120.372,208.026c-.556-.32-1.567-.91-2.242-1.3-.674-.4-1.449-.843-1.719-.994-.59-.337-8.494-4.871-9.977-5.747-.59-.337-1.551-.893-2.157-1.23s-1.584-.893-2.191-1.247-1.652-.961-2.309-1.348c-2.882-1.635-3.742-2.124-4.77-2.7-.607-.354-2.376-1.382-3.961-2.292-1.567-.91-3.624-2.09-4.55-2.612s-2.966-1.7-4.55-2.612c-1.567-.91-3.354-1.938-3.961-2.275s-1.551-.893-2.107-1.213c-1.938-1.129-10.3-5.932-11.444-6.573-.64-.354-1.247-.708-1.348-.792-.1-.067-.607-.371-1.112-.64-2.966-1.635-9.539-5.477-9.573-5.612-.034-.1.067-.219.2-.27.185-.067-.3-.438-1.534-1.146a7.015,7.015,0,0,1-1.82-1.264,5.373,5.373,0,0,1,1.6-1.163c.876-.506,3.843-2.208,6.573-3.792,2.73-1.567,6.185-3.556,7.668-4.416s4.786-2.747,7.331-4.213c2.545-1.449,5.241-3.017,5.983-3.455s2.191-1.281,3.2-1.854c2.275-1.3,6.657-3.826,9.607-5.528,1.213-.691,3.438-1.989,4.972-2.865a28.3,28.3,0,0,0,3.067-1.921c.337-.388.084-.489,3.421,1.466,1.3.758,4.517,2.612,7.163,4.129s5.6,3.219,6.573,3.792c.978.59,3.32,1.955,5.225,3.034,4.281,2.461,7.55,4.348,8.764,5.056,1.163.674,5.41,3.135,9,5.208,1.483.86,3.455,2.006,4.365,2.528.893.522,2.343,1.348,3.2,1.837,3.708,2.157,6.168,3.59,7.112,4.129.556.32,1.551.893,2.191,1.264,2.376,1.348,3.388,1.938,4.382,2.511,1.618.944,5.427,3.135,7.163,4.146,4.584,2.629,4.719,2.73,4.719,3.32,0,.371-.1.59-.286.657-.169.067-.792.4-1.4.758-1.685.978-4.281,2.477-6.236,3.607-.977.556-2.258,1.3-2.865,1.635a34.1,34.1,0,0,1-4.331,2.36c-.118,0-.219.067-.219.152a21.038,21.038,0,0,1-2.646,1.669c-1.466.826-3.607,2.073-4.77,2.747s-2.6,1.5-3.2,1.837c-1.8,1.011-4.736,2.7-5.73,3.27-.506.3-2.022,1.18-3.371,1.955s-3.421,1.989-4.635,2.7c-1.2.708-2.646,1.534-3.2,1.837-.978.539-2.764,1.567-5.612,3.236-1.719,1.011-2.242,1.045-3.657.236Zm4.55-1.483c.27-.253-.809.337-1.18.64-.185.152-.034.118.337-.1A4.594,4.594,0,0,0,124.923,206.543Zm2.444-1.4c0-.034-.219.034-.506.185-.27.152-.506.3-.506.354,0,.034.236-.034.506-.185C127.148,205.346,127.367,205.195,127.367,205.144Zm1.18-.674c0-.034-.219.034-.506.185-.27.152-.506.3-.506.354,0,.034.236-.034.506-.185C128.327,204.672,128.546,204.521,128.546,204.47Zm5.983-3.489c.27-.253-.809.337-1.18.64-.185.152-.034.118.337-.1A4.6,4.6,0,0,0,134.529,200.981Zm4.719-2.7c.1-.1-.2.034-.674.3a7.374,7.374,0,0,0-1.011.64c-.084.1.219-.034.674-.3A5.65,5.65,0,0,0,139.248,198.285Zm2.022-1.18c.27-.253-.809.337-1.18.64-.185.152-.034.118.337-.1A4.6,4.6,0,0,0,141.271,197.105Zm16.685-9.607c.1-.084-.152,0-.539.2a2.573,2.573,0,0,0-.826.556C156.473,188.459,157.619,187.819,157.956,187.5Zm-55.4-.91c-.438-.118-.371-.506.118-.624a29.2,29.2,0,0,0,3.961-2.124,2.643,2.643,0,0,0-.674-.472c-.59-.337-.674-.455-.674-.961a.868.868,0,0,1,.556-.927c.809-.506,1.365-.421,2.713.4,4.618,2.831,6.556,3.809,7.55,3.809.169,0,.3.067.3.135s.27.1.59.067a2.3,2.3,0,0,1,.876.051c.287.118.27.135-.034.253-.253.118-.169.135.337.135.371,0,.539-.034.388-.084-.489-.118-.354-.556.169-.556a19.211,19.211,0,0,0,5.124-1.567c3.017-1.416,5.713-3.506,6.539-5.073.388-.708.388-.758.118-1.18a2.374,2.374,0,0,1-.118-1.972,50.215,50.215,0,0,0,.067-7.534c-.152-.809.084-2.393.354-2.393a.374.374,0,0,1,.3.3,6.382,6.382,0,0,0,.084-1.736c0-1.112-.051-1.871-.118-1.685-.135.32-.135.32-.32-.034a3.327,3.327,0,0,1-.2-1.264,2.156,2.156,0,0,0-.64-1.719c-.691-.91-.59-.893-3.742-.994l-1.264-.034-.051-.573c-.084-.758.135-.927,1.264-1.028l.961-.084-1.011-.624-.994-.624-.084.539-.084.539-1.348.051a7.885,7.885,0,0,1-1.972-.135c-.624-.169-.64-.2-.64-.944v-.775l.809.1c.438.051,1.18.135,1.635.185l.843.1-.927-.522c-2.208-1.247-5.545-2.174-6.994-1.921-.893.135-1.6.573-1.6.961,0,.758-.3.978-1.315.944a3.4,3.4,0,0,0-1.331.152c-.337.185-.388.354-.388,1.3v1.1h-.539a5.652,5.652,0,0,1-1.989-.826c-1.264-.725-1.483-.792-1.972-.657a5.424,5.424,0,0,1-1.449.1l-.876-.051-.051-.708c-.051-.691-.034-.725.421-.725.455-.017.455-.017-.185-.371a8.186,8.186,0,0,0-5.983-.708l-1.2.27v.725c0,.59-.084.809-.438,1.079a3.492,3.492,0,0,1-2.258.657c-.522-.051-.59-.1-.64-.59-.034-.3-.084-.556-.135-.556a15.75,15.75,0,0,0-2.14,1.146l-.472.32.826.118c.994.135,1.264.388,1.18,1.146-.051.556-.051.556-.893.522-.455-.034-1.416-.051-2.107-.051-1.4,0-1.534.084-2.461,1.652-.371.64-.438.961-.506,2.865-.1,2.36-.185,2.848-.4,2.309-.1-.236-.135-.084-.135.506,0,.472.034.708.084.556.118-.438.556-.371.556.084a.929.929,0,0,0,.185.573c.2.2.152,1.2-.185,3.506a14.864,14.864,0,0,0,.219,5.427,1.85,1.85,0,0,1,.034,1.888c-.219.455-.2.522.236,1.213a13.048,13.048,0,0,0,3.472,3.253c2.612,1.736,7.365,3.809,8.73,3.809.506,0,.64.438.169.556-.169.051.236.084.876.084.657,0,1.045-.034.893-.084Zm-2.831-.219c-.573-.185-1.011-.185-.59,0a1.922,1.922,0,0,0,.674.135C100.081,186.5,100.064,186.47,99.727,186.369Zm16.988-.118a1.732,1.732,0,0,0-.59,0c-.169.051-.034.084.287.084S116.867,186.3,116.715,186.251Zm45.623-1.281c.27-.253-.809.337-1.18.64-.185.152-.034.118.337-.1A4.593,4.593,0,0,0,162.338,184.97Zm6.236-3.573c.185-.152.034-.118-.337.1a5.31,5.31,0,0,0-.843.539C167.124,182.291,168.2,181.7,168.574,181.4Zm-80.78-2.444c-.152-.354-.3-.59-.337-.506a2.481,2.481,0,0,0,.556,1.18A2.221,2.221,0,0,0,87.794,178.954Z" transform="translate(-43.941 -121.716)" fill="#f5f5f5"/>
      <path id="Path_1181" data-name="Path 1181" d="M195.959,276.087a1.064,1.064,0,0,1-.388-1.129l.051-.708.758.034c.421.034,1.567.051,2.579.051l1.8.017v.657c0,1.18-.573,1.483-2.73,1.5C196.548,276.508,196.38,276.475,195.959,276.087Zm2.41-.017a1.732,1.732,0,0,0-.59,0c-.169.051-.034.084.287.084S198.52,276.121,198.369,276.07Z" transform="translate(-140.931 -212.884)" fill="#f5f5f5"/>
      <path id="Path_1182" data-name="Path 1182" d="M192.5,256.59c0-.556.034-.59.59-.59s.59.034.59.59-.034.59-.59.59S192.5,257.146,192.5,256.59Z" transform="translate(-138.905 -200.785)" fill="#f5f5f5"/>
      <path id="Path_1183" data-name="Path 1183" d="M204.5,247.09c0-.556.034-.59.59-.59s.59.034.59.59-.034.59-.59.59S204.5,247.646,204.5,247.09Z" transform="translate(-146.861 -194.487)" fill="#f5f5f5"/>
      <path id="Path_1184" data-name="Path 1184" d="M240.646,220.13a1.829,1.829,0,0,1,1.331-2.511c.421,0,.455-.051.455-.708v-.725l1.011-.034c.556-.017,1.483-.084,2.073-.152l1.062-.1-.051.708c-.051.657-.1.758-.64.944a5.986,5.986,0,0,1-1.635.219l-1.062.017v.556a1.221,1.221,0,0,1-.337.876,1.214,1.214,0,0,0-.337.792c0,.455-.034.472-.843.472C241,220.484,240.814,220.417,240.646,220.13Z" transform="translate(-170.72 -174.202)" fill="#f5f5f5"/>
      <path id="Path_1185" data-name="Path 1185" d="M254.5,223.494c0-.843.337-.994,2.191-.994,1.8,0,2.191.169,2.191.91,0,.725-.051.742-2.477.742l-1.9.017Z" transform="translate(-180.007 -178.577)" fill="#f5f5f5"/>
      <path id="Path_1186" data-name="Path 1186" d="M225.786,216.2c-.961-.455-1.348-.792-1.4-1.213-.051-.4-.135-.455-.708-.455-.978,0-1.18-.135-1.18-.758,0-.489.067-.59.573-.758a2.716,2.716,0,0,0,.944-.59A1.346,1.346,0,0,1,225.23,212h.809v.742c0,.607-.084.826-.421,1.079l-.421.337.573.1c.944.185,1.449.691,1.449,1.466,0,.624-.017.657-.539.64A2.634,2.634,0,0,1,225.786,216.2Z" transform="translate(-158.793 -171.616)" fill="#f5f5f5"/>
      <path id="Path_1187" data-name="Path 1187" d="M264.274,214.953c-.118-.034-.219-.32-.219-.64a1.079,1.079,0,0,0-.27-.758.979.979,0,0,1-.2-.826c.051-.59.067-.607.843-.657.674-.051.876.017,1.23.371a1.45,1.45,0,0,1,.421,1.264,1.658,1.658,0,0,1-.27,1.1A1.821,1.821,0,0,1,264.274,214.953Z" transform="translate(-186.023 -171.653)" fill="#f5f5f5"/>
      <path id="Path_1188" data-name="Path 1188" d="M277,215.766c0-.809.522-1.213,1.719-1.331l.809-.084v.657c0,.607-.067.691-.708,1.045a3.593,3.593,0,0,1-1.264.371C277.017,216.423,277,216.389,277,215.766Z" transform="translate(-194.923 -173.174)" fill="#f5f5f5"/>
      <path id="Path_1189" data-name="Path 1189" d="M169,210.421a2.715,2.715,0,0,1,.169-1.062,3.073,3.073,0,0,1,2.275-.86h.758v.674c0,.607-.051.691-.59.91a1.766,1.766,0,0,0-.792.674c-.169.388-.286.438-1.011.438H169Z" transform="translate(-123.327 -169.296)" fill="#f5f5f5"/>
      <path id="Path_1190" data-name="Path 1190" d="M236.022,204.533a1.228,1.228,0,0,0-.253-.792,1.034,1.034,0,0,1-.253-.691c0-.472-.034-.489-.758-.489H234v-.826c0-.691.067-.893.438-1.18a2.6,2.6,0,0,1,2.006-.455c.354.084.421.2.421.674,0,.489-.1.64-.624.977l-.64.388.59.051c.893.067,1.517.371,1.618.775a5.272,5.272,0,0,1,.034,1.213l-.051.826-.876.051-.893.051Z" transform="translate(-166.417 -163.695)" fill="#f5f5f5"/>
      <path id="Path_1191" data-name="Path 1191" d="M210.674,203.781a.99.99,0,0,1-.472-1.062c.051-.522.118-.607.522-.657.64-.084.573-.472-.135-.893-.506-.3-.59-.438-.59-1.011V199.5h.775a2.632,2.632,0,0,1,2.107.876A2.228,2.228,0,0,1,213,201.4c-.051.624-.1.708-.489.758l-.455.051.4.4a1.346,1.346,0,0,1,.4,1.011v.59h-.826A1.81,1.81,0,0,1,210.674,203.781Z" transform="translate(-150.507 -163.33)" fill="#f5f5f5"/>
      <path id="Path_1192" data-name="Path 1192" d="M248.614,208.467a1.61,1.61,0,0,1-1.028-1.635c.051-.539.067-.556.86-.539.624,0,.86.084,1.045.354a1.847,1.847,0,0,0,.843.556c.539.185.59.253.59.86v.657h-.876A4.749,4.749,0,0,1,248.614,208.467Z" transform="translate(-175.418 -167.83)" fill="#f5f5f5"/>
      <path id="Path_1193" data-name="Path 1193" d="M275,207.371c0-.607.051-.674.59-.86a2.167,2.167,0,0,0,.91-.607c.27-.337.472-.4,1.18-.4h.86v.64c0,1.23-.91,1.888-2.612,1.888H275Z" transform="translate(-193.597 -167.307)" fill="#f5f5f5"/>
      <path id="Path_1194" data-name="Path 1194" d="M221.644,207.128a3.148,3.148,0,0,1-.725-.354c-.32-.2-.371-.371-.337-.944.051-.64.084-.691.607-.742a2.778,2.778,0,0,1,1.281.287,3.653,3.653,0,0,0,1.416.354h.708v.657c0,.438-.084.691-.27.758A10.212,10.212,0,0,1,221.644,207.128Z" transform="translate(-157.516 -167.031)" fill="#f5f5f5"/>
      <path id="Path_1195" data-name="Path 1195" d="M263.2,205.383a2.242,2.242,0,0,1-.2-1.079c0-.775.067-.927.522-1.331a1.429,1.429,0,0,1,1.23-.388c.674.051.691.067.742.691.034.455-.034.708-.219.86a1.6,1.6,0,0,0-.4.775c-.1.539-.168.59-.775.64A1.371,1.371,0,0,1,263.2,205.383Z" transform="translate(-185.642 -165.37)" fill="#f5f5f5"/>
      <path id="Path_1196" data-name="Path 1196" d="M194.3,206.18c-.219-.152-.287-.388-.236-.876.051-.64.084-.674.691-.725.961-.084,1.466.32,1.466,1.146v.674h-.809a2.464,2.464,0,0,1-1.112-.219Z" transform="translate(-139.935 -166.689)" fill="#f5f5f5"/>
      <path id="Path_1197" data-name="Path 1197" d="M175.191,204.27a3.6,3.6,0,0,0-1.3-.253H173v-.657c0-.792.135-.86,1.736-.86a4.09,4.09,0,0,1,1.8.3c.522.253.59.371.64,1.011l.051.708h-.809A3.358,3.358,0,0,1,175.191,204.27Z" transform="translate(-125.978 -165.318)" fill="#f5f5f5"/>
      <path id="Path_1198" data-name="Path 1198" d="M199.669,193.116A3.418,3.418,0,0,1,199.5,192c0-.91.539-1.6,1.264-1.6.371,0,.421-.067.421-.573a1.125,1.125,0,0,0-.27-.775.979.979,0,0,1-.2-.826c.051-.59.067-.607.843-.657.674-.051.876.017,1.23.371.826.826.421,2.629-.59,2.629-.286,0-.337.118-.337.674,0,.371-.067.674-.169.674-.084,0-.169.337-.169.758v.758h-.843C200.039,193.436,199.8,193.368,199.669,193.116Z" transform="translate(-143.546 -155.412)" fill="#f5f5f5"/>
      <path id="Path_1199" data-name="Path 1199" d="M219.888,199.619c-.32-.135-.388-.286-.388-.944V197.9l.893.1c.472.067,1.433.152,2.107.2l1.213.1v.64c0,.421-.084.674-.27.742A13.245,13.245,0,0,1,219.888,199.619Z" transform="translate(-156.804 -162.269)" fill="#f5f5f5"/>
      <path id="Path_1200" data-name="Path 1200" d="M249.252,198.1c-.135-.084-.2-.388-.169-.708.034-.472.152-.59.624-.758a2.285,2.285,0,0,0,.944-.657.905.905,0,0,1,1.028-.4l.657.051.051.86c.051.843.034.893-.573,1.264A3.625,3.625,0,0,1,249.252,198.1Z" transform="translate(-176.41 -160.715)" fill="#f5f5f5"/>
      <path id="Path_1201" data-name="Path 1201" d="M186,196.58c0-.607.051-.674.573-.86a2.784,2.784,0,0,0,1.011-.691,1.039,1.039,0,0,1,1.079-.455c.607.051.624.067.674.843.034.607-.017.86-.287,1.129a3.639,3.639,0,0,1-2.326.691H186Z" transform="translate(-134.596 -160.056)" fill="#f5f5f5"/>
      <path id="Path_1202" data-name="Path 1202" d="M238.219,194.916c-.118-.051-.219-.337-.219-.657,0-.472.067-.556.522-.657a8.979,8.979,0,0,1,1.281-.1h.742l-.051.725-.051.708-1.011.034A6.538,6.538,0,0,1,238.219,194.916Z" transform="translate(-169.069 -159.352)" fill="#f5f5f5"/>
      <path id="Path_1203" data-name="Path 1203" d="M392.668,148.837c0-.91.236-1.4.388-.826.051.169.084-.118.084-.624s-.034-.792-.084-.624a.374.374,0,0,1-.32.287c-.185,0-.236-.32-.236-1.517v-1.517l1.045-.758a3.768,3.768,0,0,1,1.5-.758c.539,0,.792.27.506.556a8.1,8.1,0,0,0-.185,2.494v2.326l-.506.354c-.4.287-.472.421-.354.657.135.236.067.354-.32.573a2.331,2.331,0,0,1-.994.286C392.668,149.747,392.668,149.747,392.668,148.837Zm1.348.067c.135-.084.185-.169.084-.169a1.848,1.848,0,0,0-.59.354C393.107,149.427,393.427,149.309,394.017,148.9Z" transform="translate(-271.491 -125.543)" fill="#f5f5f5"/>
      <path id="Path_1204" data-name="Path 1204" d="M218.736,143.783a.92.92,0,0,1-.371-.843v-.573H217.3c-1.365,0-1.8-.286-1.8-1.18,0-.489.1-.725.371-.91a3.946,3.946,0,0,1,2.848,0c.472.236.522.32.455.927l-.067.657h1.281c1.466,0,1.685.135,1.685,1.028s-.438,1.163-1.854,1.163A2.763,2.763,0,0,1,218.736,143.783Z" transform="translate(-154.153 -123.894)" fill="#f5f5f5"/>
      <path id="Path_1205" data-name="Path 1205" d="M310.722,115.262c-.017-1.2-.067-2.6-.118-3.118-.084-.775-.067-.978.118-.978.236,0,.742-.152,15.64-5.056,8.747-2.865,9.623-3.084,9.623-2.444,0,.135-.067.253-.169.253-.084,0-.169.253-.169.556s.067.455.135.337c.219-.337.017,3.826-.219,4.382-.2.489-.843.337-1.4-.337l-.506-.64-.977.674c-1.331.91-1.921,1.483-1.921,1.888,0,.27-.371.438-2.14,1.028-1.2.388-3.994,1.315-6.253,2.056-2.242.742-4.264,1.348-4.5,1.348s-.421.067-.421.152a6.224,6.224,0,0,1-1.719.674c-.961.3-2.258.725-2.916.961a7.8,7.8,0,0,1-1.618.4h-.455Zm2.511,1.011c.506-.185.522-.2.1-.135a8.884,8.884,0,0,0-1.011.337c-.388.185-.421.219-.1.135A7.08,7.08,0,0,0,313.234,116.273Zm4.129-1.315c.674-.3.27-.32-.438,0-.32.135-.455.236-.32.236A2.329,2.329,0,0,0,317.363,114.958Zm4.045-1.348c.657-.287.354-.3-.421,0-.32.118-.472.236-.337.236A2.328,2.328,0,0,0,321.408,113.61Zm4.129-1.348c.32-.118.472-.236.337-.236a2.454,2.454,0,0,0-.758.236C324.458,112.548,324.761,112.565,325.537,112.262Zm4.786-1.534a.533.533,0,0,0,.253-.556l-.017-.438-.118.4a.84.84,0,0,1-.438.539c-.185.067-.253.135-.135.135A1.249,1.249,0,0,0,330.323,110.728Z" transform="translate(-217.168 -99.602)" fill="#f5f5f5"/>
      <path id="Path_1206" data-name="Path 1206" d="M307.017,111.371l.017-1.534.859-.624c1.449-1.062,1.77-1.213,2.393-1.213h.59v4.146l-1.264.371a9.232,9.232,0,0,1-1.938.371H307Z" transform="translate(-214.81 -102.672)" fill="#f5f5f5"/>
      <path id="Path_1207" data-name="Path 1207" d="M329.5,97.133V94.184l1.449-1.028c2.09-1.5,2.09-1.483,2.09,1.753v2.6l-.539.556c-.3.3-.539.522-.556.489,0-.051-.152,0-.337.118-.287.169-.3.185-.034.2.152,0,.286.1.286.219-.017.354-.843.843-1.618.927l-.742.084Z" transform="translate(-229.726 -92.193)" fill="#f5f5f5"/>
    </g>
    <g id="Group_30" data-name="Group 30" transform="translate(33 54.569)">
      <path id="Path_1208" data-name="Path 1208" d="M371.13,363.243a49.817,49.817,0,0,1-4.534-2.764c-.034-.118.354-.4.843-.657,1.382-.691,2.258-1.3,2.022-1.382-.354-.118-.219-.371.219-.371.371,0,.421.067.421.59,0,.32-.084.59-.185.59a.82.82,0,0,0-.421.253,1.413,1.413,0,0,1-.826.253c-.455,0-.573.067-.624.4-.067.337.034.472.489.725.3.152.556.354.556.421,0,.084.118.135.253.135s.253.084.253.169c0,.1.118.168.27.168a4.665,4.665,0,0,1,1.584.843,3.02,3.02,0,0,0,.64.32c.286.135.539.27.539.337s.27.219.59.337.59.27.59.337.27.219.59.337.59.27.59.354.219.185.489.253c.4.084.758-.051,1.837-.657a7.922,7.922,0,0,1,1.584-.775.426.426,0,0,0,.354-.2,3.471,3.471,0,0,1,1.062-.725,7.255,7.255,0,0,0,1.2-.708,2.039,2.039,0,0,1,.607-.32,1.614,1.614,0,0,0,.455-.219,3.449,3.449,0,0,1,.624-.455c.3-.169.489-.4.421-.489a4.567,4.567,0,0,0-1.028-.624l-.893-.455-1.214.691c-3.607,2.073-4.1,2.326-4.6,2.326h-.556v-5.747c0-5.09.034-5.73.253-5.646.253.084,2.09-.893,7.23-3.927,1.3-.742,2.376-1.348,2.393-1.315.135.135.1,10.989-.034,11.039a19.122,19.122,0,0,0-2.882,1.82,9.447,9.447,0,0,0,2.528,1.618c.169.084.287.236.253.337a82.823,82.823,0,0,1-9.253,5.359c-.135,0-2.242-1.163-4.685-2.579Z" transform="translate(-254.148 -247.532)" fill="#0060f5"/>
      <path id="Path_1209" data-name="Path 1209" d="M155.3,396.556a.373.373,0,0,1-.3-.32c0-.168.236-.236.927-.236.809,0,.927.034.927.337,0,.287-.1.337-.624.32A5.1,5.1,0,0,1,155.3,396.556Z" transform="translate(-113.877 -280.913)" fill="#0060f5"/>
      <path id="Path_1210" data-name="Path 1210" d="M161.5,392.708c0-.219.185-.4.59-.539.32-.118.59-.287.59-.354s.185-.135.421-.135.421-.1.421-.2c0-.3,1.23-.977,1.753-.977.91,0,.59.3-2.022,1.82C161.938,393.1,161.5,393.2,161.5,392.708Z" transform="translate(-118.186 -277.267)" fill="#0060f5"/>
      <path id="Path_1211" data-name="Path 1211" d="M136.118,385.365l-1.972-2.191H133.2c-1.18,0-1.7-.135-1.7-.438,0-.185.337-.236,1.483-.236,1.652,0,2.225.236,2.225.944q0,.4.3.4c.455,0,.708.337.708.961,0,.506.051.556.472.556a1.329,1.329,0,0,1,1.214,1.146c0,.286.1.371.421.371.3,0,.421.084.421.337C138.747,388.011,138.056,387.522,136.118,385.365Z" transform="translate(-98.298 -271.963)" fill="#0060f5"/>
      <path id="Path_1212" data-name="Path 1212" d="M158.848,386.772c0-.354-.084-.421-.472-.421-.64,0-.876-.287-.876-.994l.017-.607.792.893a2.909,2.909,0,0,0,1.129.876c.607,0,1.1.2,1.1.438,0,.169-.236.236-.843.236C158.9,387.194,158.848,387.16,158.848,386.772Z" transform="translate(-115.534 -273.455)" fill="#0060f5"/>
      <path id="Path_1213" data-name="Path 1213" d="M118.466,373.965c-.152-.1-1.348-1.416-3.522-3.859a1.687,1.687,0,0,0-.725-.556.249.249,0,0,1-.219-.27c0-.2.152-.236.64-.2.522.034.674.135.876.59.135.3.337.556.438.556.32,0,.742.607.742,1.062,0,.371.084.455.388.455a1.379,1.379,0,0,1,1.129,1.129c0,.27.135.371.59.455.438.084.59.2.59.438C119.393,374.117,118.82,374.235,118.466,373.965Z" transform="translate(-86.697 -263.058)" fill="#0060f5"/>
      <path id="Path_1214" data-name="Path 1214" d="M133.848,371.944c0-.3-.084-.421-.32-.421-.472,0-1.028-.792-1.028-1.449,0-.539.034-.573.59-.573.4,0,.59.084.59.253a.259.259,0,0,1-.253.253c-.135,0-.253.051-.253.1a5.968,5.968,0,0,0,1.618,1.753.245.245,0,0,1,.236.253c0,.168-.185.253-.59.253C133.916,372.365,133.848,372.315,133.848,371.944Z" transform="translate(-98.961 -263.345)" fill="#0060f5"/>
      <path id="Path_1215" data-name="Path 1215" d="M90.146,360.09a17.025,17.025,0,0,1-2.258-2.258c-1.837-2.056-1.955-2.157-2.612-2.191-2.292-.1-2.275-.1-2.275-.388,0-.2.287-.253,1.584-.253,1.871,0,2.124.067,2.124.607,0,.287.1.4.3.4.472,0,.876.539.876,1.146,0,.472.051.539.472.539a1.329,1.329,0,0,1,1.213,1.146c0,.253.1.371.32.371a.59.59,0,0,1,.438.169,3.506,3.506,0,0,0,1.449.169c1.213,0,1.331.034,1.331.337s-.1.337-1.3.32A12.528,12.528,0,0,1,90.146,360.09Z" transform="translate(-66.146 -253.733)" fill="#0060f5"/>
      <path id="Path_1216" data-name="Path 1216" d="M110.129,358.893a1.016,1.016,0,0,1-.287-.438c0-.084-.185-.287-.421-.472a1.015,1.015,0,0,1-.421-.91c0-.489.051-.573.4-.573a.729.729,0,0,1,.522.169c.051.1-.017.169-.169.169-.354,0,1.028,1.7,1.466,1.82a.374.374,0,0,1,.3.3C111.528,359.315,110.449,359.264,110.129,358.893Z" transform="translate(-83.382 -254.727)" fill="#0060f5"/>
      <path id="Path_1217" data-name="Path 1217" d="M118,361.927a.259.259,0,0,1,.253-.253c.3,0,.32-.2.051-.472-.152-.152-.084-.2.337-.2.506,0,.539.034.539.59s-.034.59-.59.59C118.185,362.18,118,362.1,118,361.927Z" transform="translate(-89.349 -257.71)" fill="#0060f5"/>
      <path id="Path_1218" data-name="Path 1218" d="M119.944,207.162c-.961-.556-3.539-2.039-5.713-3.3-2.174-1.247-4.23-2.427-4.55-2.6s-.809-.455-1.1-.624c-.27-.169-2.511-1.466-4.972-2.865s-4.584-2.629-4.719-2.713c-1.921-1.146-9.556-5.494-9.758-5.545a.7.7,0,0,1-.354-.185c-.051-.084-1.82-1.146-3.961-2.376-2.124-1.213-4.1-2.36-4.382-2.511-3.522-2.039-9.708-5.6-10.7-6.152-.691-.388-3.236-1.854-5.646-3.236s-4.719-2.713-5.14-2.949-1.433-.826-2.275-1.315c-2.646-1.551-7.888-4.534-8.073-4.6-.32-.1.084-.438,1.786-1.4.961-.556,1.786-1.011,1.854-1.045a11.634,11.634,0,0,1,1.938.994c1.011.573,2.309,1.331,2.916,1.669s1.567.893,2.157,1.23c1.871,1.1,3.118,1.82,4.416,2.562.691.388,2.511,1.433,4.045,2.309s4.6,2.646,6.826,3.927,6.775,3.893,10.112,5.815c9.775,5.612,15.219,8.747,16.938,9.741.876.522,2.09,1.213,2.7,1.551,1.163.657,5.579,3.185,11.292,6.489,5.461,3.152,5.713,3.286,5.966,3.286.236,0,2.427-1.23,8.444-4.719,1.4-.809,4.079-2.36,5.983-3.455,3.3-1.9,4.9-2.815,9.927-5.73,1.247-.708,2.511-1.433,2.781-1.6.287-.169,2.528-1.449,4.989-2.865s5.983-3.455,7.837-4.517,4.062-2.326,4.888-2.815c.843-.489,2.275-1.315,3.2-1.854.927-.522,1.753-1.028,1.82-1.1.135-.118-1.129-.91-4.6-2.9-1.736-1.011-5.545-3.2-7.163-4.146-.556-.32-1.534-.893-2.191-1.264-2.376-1.348-3.388-1.938-4.382-2.511-.944-.539-3.4-1.972-7.112-4.129-.86-.489-2.309-1.315-3.2-1.837-.91-.522-2.882-1.669-4.365-2.528-3.59-2.073-7.837-4.534-9-5.208-1.247-.725-4.668-2.7-8.174-4.719-1.567-.893-3.994-2.309-5.393-3.118-1.382-.809-4.534-2.629-6.994-4.045-9.4-5.393-10.281-5.932-10.062-6.135a44.19,44.19,0,0,1,4.668-2.629c.152,0,4.23,2.225,4.635,2.528.1.067,3.017,1.753,6.489,3.742,7.736,4.433,12.371,7.1,15.253,8.764,1.213.691,4.55,2.612,7.416,4.264,2.882,1.652,6.472,3.725,8.005,4.6s5.056,2.916,7.837,4.5c9.32,5.359,18.185,10.449,20.949,12.05a24.04,24.04,0,0,1,2.73,1.7,11.141,11.141,0,0,1-1.77,1.163,10.114,10.114,0,0,0-1.77,1.2,9.53,9.53,0,0,0,1.77,1.18,6.225,6.225,0,0,1,1.719,1.23,51.568,51.568,0,0,1-4.432,2.713c-6.961,4.011-10.534,6.067-13.921,8.039-1.736.994-3.2,1.82-3.253,1.82s-.084-.185-.084-.421c0-.32.152-.489.64-.725a3.835,3.835,0,0,0,.843-.489,1.748,1.748,0,0,1,.59-.32,1.22,1.22,0,0,0,.455-.236,20.312,20.312,0,0,1,3-1.685c.118,0,.2-.051.2-.118a3.8,3.8,0,0,1,1.129-.725,13.93,13.93,0,0,0,1.365-.792,1.524,1.524,0,0,1,.64-.32c.219-.051.4-.152.4-.219a4.3,4.3,0,0,1,1.146-.708,9.955,9.955,0,0,0,1.213-.674,3.482,3.482,0,0,1,1.82-.826c.421,0,.539-.067.539-.337,0-.236.236-.455.809-.725a5.953,5.953,0,0,0,.876-.472,6.121,6.121,0,0,1,1.989-.994c.2,0,.371-.1.371-.219a2.886,2.886,0,0,1,1.146-.809,5.807,5.807,0,0,0,1.247-.742c.067-.084-.118-.253-.421-.388a2.339,2.339,0,0,1-.624-.337,6.275,6.275,0,0,0-.978-.573c-.86-.472-.876-.472-1.2-.152a5.325,5.325,0,0,1-2.174,1.2c-.2,0-.371.1-.371.219,0,.253-1.213.961-1.669.961-.2,0-.354.1-.354.236,0,.118-.253.337-.539.455a2.862,2.862,0,0,0-.775.438.81.81,0,0,1-.472.219c-.135,0-.236.051-.236.135,0,.169-.978.708-1.281.708-.135,0-.236.084-.236.169,0,.1-.185.169-.421.169s-.421.1-.421.219-.438.438-.961.708a11.792,11.792,0,0,0-1.062.607,26.131,26.131,0,0,1-3.337,1.837c-.118,0-.2.067-.2.152a3.567,3.567,0,0,1-1.129.708,12.047,12.047,0,0,0-1.449.843,4.71,4.71,0,0,1-1.011.59,4.1,4.1,0,0,0-.893.506,9.222,9.222,0,0,1-1.18.674,8.893,8.893,0,0,0-1.079.59,4.082,4.082,0,0,1-1.551.826c-.169,0-.3.084-.3.169,0,.1-.118.169-.253.169s-.253.067-.253.135c0,.219-1.264.876-1.668.876-.185,0-.354.1-.354.219,0,.287-1.517,1.129-2.006,1.129-.185,0-.354.1-.354.236,0,.118-.354.4-.792.624a2.84,2.84,0,0,0-.86.539c-.034.067-.2.118-.388.118-.169,0-.32.067-.32.152a2.244,2.244,0,0,1-.792.539,5.7,5.7,0,0,0-1.011.607,2.155,2.155,0,0,1-.59.32,2.1,2.1,0,0,0-.607.337.745.745,0,0,1-.472.236c-.135,0-.236.067-.236.135,0,.084-.32.286-.708.472a3.442,3.442,0,0,0-.809.421,37.867,37.867,0,0,1-4.163,2.343c-.118,0-.219.067-.219.169,0,.084-.185.2-.421.27-.236.051-.421.152-.421.219,0,.185-.792.522-1.18.522-.185,0-.337.1-.337.236s-.169.3-.371.371a1.767,1.767,0,0,0-.607.337.955.955,0,0,1-.64.236c-.219,0-.4.1-.4.219,0,.286-1.517,1.129-2.006,1.129-.185,0-.354.1-.354.219,0,.287-1.18.961-1.669.961-.185,0-.354.1-.354.219,0,.32-1.365.961-2.073.961a1.427,1.427,0,0,1-.826-.219,3,3,0,0,0-.758-.438c-.3-.118-.556-.337-.556-.455,0-.135-.169-.236-.4-.236a.955.955,0,0,1-.64-.236,2.1,2.1,0,0,0-.607-.337,2.154,2.154,0,0,1-.59-.32,5.7,5.7,0,0,0-1.011-.607,2.245,2.245,0,0,1-.792-.539c0-.084-.152-.152-.32-.152-.185,0-.354-.051-.388-.118a4.891,4.891,0,0,0-1.146-.708,13.03,13.03,0,0,1-1.18-.674,6.465,6.465,0,0,0-.876-.506c-.455-.219-.809-.506-.809-.624,0-.135-.152-.236-.354-.236a3.96,3.96,0,0,1-2.006-1.129c0-.118-.169-.219-.354-.219-.556,0-1.669-.691-1.669-1.045,0-.219-.135-.3-.522-.3-.657,0-1.837-.674-1.837-1.045,0-.219-.135-.3-.522-.3-.624,0-1.837-.64-1.837-.961,0-.118-.152-.219-.354-.219a4.791,4.791,0,0,1-2.006-1.045c0-.084-.084-.135-.2-.135a19.119,19.119,0,0,1-3.3-1.888.359.359,0,0,0-.287-.135.768.768,0,0,1-.455-.219,4.146,4.146,0,0,0-.927-.522c-.4-.185-.725-.371-.725-.438,0-.084-.185-.185-.421-.236-.236-.067-.421-.185-.421-.27a.179.179,0,0,0-.2-.169,19.119,19.119,0,0,1-3.3-1.888.31.31,0,0,0-.236-.135c-.185,0-4.348-2.326-4.517-2.511a8.144,8.144,0,0,0-.91-.522,5.667,5.667,0,0,1-1.011-.59,11.039,11.039,0,0,0-1.18-.657,9.219,9.219,0,0,1-1.18-.674,4.094,4.094,0,0,0-.893-.506,4.708,4.708,0,0,1-1.011-.59,12.228,12.228,0,0,0-1.281-.775c-.522-.27-.961-.59-.961-.708s-.152-.219-.354-.219a3.96,3.96,0,0,1-2.006-1.129c0-.118-.169-.219-.371-.219a5.7,5.7,0,0,1-1.989-1.011,1.231,1.231,0,0,0-.4-.219c-.539-.2-7.77-4.382-7.82-4.534a.359.359,0,0,0-.287-.135.768.768,0,0,1-.455-.219,2.862,2.862,0,0,0-.775-.438,3.782,3.782,0,0,1-.775-.421,8.083,8.083,0,0,0-1.112-.674,10.237,10.237,0,0,1-1.011-.59,11.7,11.7,0,0,0-1.213-.691,4.3,4.3,0,0,1-1.146-.708.153.153,0,0,0-.169-.135,13.726,13.726,0,0,1-1.8-.91c-1.449-.809-1.669-.893-2.056-.725a1.825,1.825,0,0,0-.522.3,2.031,2.031,0,0,1-1.163.489c-.455,0-.455.455-.017.59.185.051.337.185.337.27s.118.152.253.152a.259.259,0,0,1,.253.253c0,.135.152.253.337.253.4,0,1.517.522,1.517.708,0,.067.118.135.253.135a.259.259,0,0,1,.253.253c0,.135.152.253.337.253.4,0,1.517.522,1.517.708,0,.067.118.135.253.135s.253.051.253.135a1.906,1.906,0,0,0,.758.421c.421.185.758.388.758.472s.1.152.236.152a.81.81,0,0,1,.472.219,2.331,2.331,0,0,0,.691.4c.253.118.455.287.455.388,0,.084.118.169.27.169a9.276,9.276,0,0,1,2.258,1.163,11.693,11.693,0,0,0,1.213.691,3.74,3.74,0,0,1,1.146.725c0,.067.1.118.236.118a.81.81,0,0,1,.472.219,2.862,2.862,0,0,0,.775.438c.287.118.539.337.539.455,0,.135.169.236.4.236a1.041,1.041,0,0,1,.64.219,2.862,2.862,0,0,0,.775.438c.287.118.539.287.539.371s.1.152.236.152.27.051.3.135a3.969,3.969,0,0,0,.944.522c.472.236.876.472.876.556,0,.067.1.135.236.135a.745.745,0,0,1,.472.236,1.767,1.767,0,0,0,.607.337.514.514,0,0,1,.371.455c0,.253.118.32.573.32a1.284,1.284,0,0,1,.809.236,1.768,1.768,0,0,0,.607.337.514.514,0,0,1,.371.455c0,.253.118.32.573.32a1.284,1.284,0,0,1,.809.236,1.768,1.768,0,0,0,.607.337c.2.067.371.236.371.371s.152.236.337.236c.4,0,1.18.354,1.18.539,0,.067.118.135.253.135s.253.152.253.337c0,.27.118.337.59.337.32,0,.59.084.59.169,0,.1.152.169.337.169s.337.084.337.169c0,.1.118.169.253.169a.259.259,0,0,1,.253.253c0,.152.152.253.4.253a1.041,1.041,0,0,1,.64.219,2.862,2.862,0,0,0,.775.438c.287.118.539.337.539.455,0,.135.169.236.4.236a1.041,1.041,0,0,1,.64.219,2.862,2.862,0,0,0,.775.438c.287.118.539.27.539.337s.27.219.59.337.59.27.59.354c0,.067.185.185.421.236.236.067.421.219.421.354,0,.152.169.253.421.253.236,0,.421.084.421.169,0,.1.152.169.337.169s.337.067.337.152.185.2.421.253c.236.067.421.219.421.354s.152.253.337.253c.4,0,1.18.354,1.18.539,0,.067.1.135.236.135a.745.745,0,0,1,.472.236,1.767,1.767,0,0,0,.607.337c.2.067.371.2.371.287s.152.152.337.152.337.084.337.169c0,.1.1.169.236.169a.745.745,0,0,1,.472.236,1.767,1.767,0,0,0,.607.337c.2.067.371.236.371.371s.152.236.337.236c.388,0,1.18.337,1.18.522,0,.067.185.169.421.219.236.067.421.219.421.354s.152.253.337.253a2.224,2.224,0,0,1,1.18.522,1.224,1.224,0,0,0,.472.219c.2.067.371.236.371.371s.152.236.337.236c.438,0,1.348.455,1.348.674,0,.1.152.169.32.169.185,0,.354.051.388.135a3.215,3.215,0,0,0,.86.489c.438.219.792.455.792.556,0,.084.152.169.32.169.185,0,.354.051.388.135a3.214,3.214,0,0,0,.86.489c.556.27.792.489.792.725,0,.27.118.337.522.337.64,0,1.163.27,1.163.59,0,.152.169.253.4.253a1.137,1.137,0,0,1,.674.253.856.856,0,0,0,.438.253c.337,0,1.517.758,1.517.977,0,.1.169.2.371.2a5.851,5.851,0,0,1,1.989,1.011,3.018,3.018,0,0,0,.64.32c.287.135.539.27.539.337s.27.219.59.337.59.27.59.354c0,.067.185.185.4.236a1.524,1.524,0,0,1,.64.32,4.364,4.364,0,0,0,.86.489c.337.169.624.4.624.556,0,.169.169.253.489.253.27,0,.522.051.556.135a3.51,3.51,0,0,0,.843.522c.725.354.809.371,1.062.118a1.613,1.613,0,0,1,.691-.371c.219-.051.4-.152.4-.219,0-.185.792-.522,1.18-.522.185,0,.337-.1.337-.236,0-.118.438-.438.977-.708a7.728,7.728,0,0,0,1.045-.59,3.8,3.8,0,0,1,1.837-.826c.388,0,.522-.067.522-.3,0-.4,1.146-1.045,1.837-1.045.4,0,.522-.067.522-.337,0-.354.758-.843,1.348-.843.185,0,.337-.118.337-.253s.152-.253.337-.253.337-.067.337-.152c0-.2.977-.691,1.382-.691a.272.272,0,0,0,.3-.236c0-.135.169-.3.371-.371a1.767,1.767,0,0,0,.607-.337,1.284,1.284,0,0,1,.809-.236c.455,0,.573-.067.573-.32a.514.514,0,0,1,.371-.455,1.768,1.768,0,0,0,.607-.337.745.745,0,0,1,.472-.236c.135,0,.236-.067.236-.135,0-.084.32-.287.725-.472a4.145,4.145,0,0,0,.927-.522.81.81,0,0,1,.472-.219c.135,0,.236-.067.236-.152s.27-.253.59-.371.59-.27.59-.337.27-.219.59-.337.59-.287.59-.354.27-.135.59-.135c.472,0,.59-.067.59-.32,0-.219.185-.4.59-.539.32-.118.59-.27.59-.337s.169-.185.371-.253a1.767,1.767,0,0,0,.607-.337.837.837,0,0,1,.556-.236c.169,0,.32-.067.32-.169,0-.084.118-.169.253-.169s.253-.067.253-.169c0-.084.185-.169.421-.169.253,0,.421-.1.421-.236s.169-.3.371-.371a1.768,1.768,0,0,0,.607-.337,1.284,1.284,0,0,1,.809-.236c.455,0,.573-.067.573-.32a.514.514,0,0,1,.371-.455,1.767,1.767,0,0,0,.607-.337c.236-.253,1.382-.32,1.382-.1a18.916,18.916,0,0,1-2.461,1.567c-1.365.775-2.9,1.669-3.421,1.972s-1.466.86-2.124,1.23c-.64.371-1.449.826-1.77,1.028-.32.185-2.562,1.466-4.972,2.865-2.41,1.382-4.5,2.579-4.635,2.663s-1.011.59-1.938,1.112-2.41,1.382-3.286,1.888c-3.977,2.326-7.854,4.534-8.107,4.618a6.591,6.591,0,0,1-2.022-.91Zm-9.4-70.9c.337-.27.354-.354.169-.59a2.635,2.635,0,0,0-2.309-.017c-.32.253-.32.253.084.59A1.8,1.8,0,0,0,110.539,136.258Zm-2.949-1.77.472-.388-.522-.287a1.709,1.709,0,0,0-1.921.067l-.4.337.4.337A1.532,1.532,0,0,0,107.59,134.489Zm-3.573-1.938c.135-.219-.3-.354-.742-.236-.27.067-.3.135-.135.236.287.185.758.185.876,0Z" transform="translate(-43.276 -104.243)" fill="#0060f5"/>
      <path id="Path_1219" data-name="Path 1219" d="M152.315,356.312,151,356.245v-.489a.753.753,0,0,1,.388-.725c.2-.118.961-.59,1.7-1.028,1.163-.708,1.348-.758,1.6-.556a4.949,4.949,0,0,0,2.09.337,8.3,8.3,0,0,1,1.989.236c.084.084-.455.489-1.315.977-.792.472-1.567.961-1.7,1.079C155.483,356.346,154.421,356.413,152.315,356.312Z" transform="translate(-111.225 -252.635)" fill="#0060f5"/>
      <path id="Path_1220" data-name="Path 1220" d="M70.26,342.432c-.876-.994-1.77-2.022-2.006-2.292l-.4-.489.489-.388a2.261,2.261,0,0,1,.624-.421,3.683,3.683,0,0,0,.792-.421l.674-.421v.489c0,.438-.118.556-.843.893a4.05,4.05,0,0,0-.843.472c0,.051.169.169.388.253.27.118.388.337.421.809.051.556.1.624.506.624.506,0,1.382.758,1.382,1.213,0,.169.1.3.219.3.32,0,.792.556.792.893C72.451,344.607,71.76,344.135,70.26,342.432Z" transform="translate(-56.103 -242.463)" fill="#0060f5"/>
      <path id="Path_1221" data-name="Path 1221" d="M86.744,345.427a.913.913,0,0,1-.371-.657c0-.287-.1-.421-.371-.455-.32-.034-.4-.168-.438-.674-.051-.59-.017-.64.371-.64a.67.67,0,0,1,.539.2c.084.135.034.152-.152.084-.455-.168-.337.118.388.927a2.053,2.053,0,0,0,1.264.86c.792.135,1.18,0,.91-.32-.152-.185-.1-.236.337-.236.489,0,.522.034.522.59v.59H88.429A3.238,3.238,0,0,1,86.744,345.427Z" transform="translate(-67.834 -245.778)" fill="#0060f5"/>
      <path id="Path_1222" data-name="Path 1222" d="M131.292,342.917a5.97,5.97,0,0,0-1.955-.169H127.5v-.556c0-.489.1-.607,1.146-1.247,1.77-1.1,2.09-1.247,2.343-1.045a9.08,9.08,0,0,0,2.258.27c2.9.135,2.916.455.1,2.073-1.5.86-1.871.978-2.056.674Z" transform="translate(-95.647 -243.672)" fill="#0060f5"/>
      <path id="Path_1223" data-name="Path 1223" d="M104.691,329.092c-1.163-.067-2.124-.135-2.14-.152-.034,0-.051-.185-.051-.4,0-.3.354-.607,1.837-1.483,1.551-.944,1.888-1.079,2.073-.893a6.041,6.041,0,0,0,2.292.354c1.938.1,2.056.118,2.056.455,0,.27-.4.59-1.635,1.331a7.751,7.751,0,0,1-1.989.927C106.949,329.21,105.854,329.143,104.691,329.092Z" transform="translate(-79.073 -234.566)" fill="#0060f5"/>
      <path id="Path_1224" data-name="Path 1224" d="M80.79,315.482a3.092,3.092,0,0,0-.927-.118c-1.382-.034-.843-.893,1.4-2.208,1.264-.725,1.466-.792,1.7-.573.185.169.674.236,1.618.236,1.938,0,2.41.118,2.41.607,0,.286-.236.539-.91.978-1.736,1.112-1.938,1.18-3.522,1.18A8.082,8.082,0,0,1,80.79,315.482Z" transform="translate(-63.566 -225.54)" fill="#0060f5"/>
      <path id="Path_1225" data-name="Path 1225" d="M174.238,250.8a21.231,21.231,0,0,1-4.921-1.9c-3.843-1.972-5.933-3.64-6.725-5.359-.4-.927-.421-1.011-.185-1.6.219-.573.219-.674-.017-1.129a7.544,7.544,0,0,1-.337-2.73c-.118-3.859.185-4.55,1.3-2.916,1.062,1.584,3.1,3.084,6.522,4.8,3.118,1.584,5.663,2.258,7.2,1.9a17.279,17.279,0,0,0,3.826-2.006c0-.067-1.382-.927-3.051-1.938-1.685-.994-3.168-1.921-3.286-2.056a1.378,1.378,0,0,1-.236-.86c0-.522.084-.674.421-.826a3.233,3.233,0,0,1,2.764.236c1.416.826,5.629,3.3,8.326,4.921,2.882,1.719,3.961,2.174,5.494,2.326,3.337.354,9.607-2.242,12.472-5.174.152-.152.539-.624.86-1.045.876-1.163,1.112-1.062,1.23.556a20.308,20.308,0,0,1-.253,4.955c-.118.219-.084.489.118.961a1.966,1.966,0,0,1,.185,1.213c-.472,2.494-6.1,6.3-10.786,7.264-1.685.337-1.786.337-1.786-.067,0-.236.118-.337.4-.337a12.234,12.234,0,0,0,1.888-.438c.826-.253,1.7-.489,1.972-.539.253-.034.455-.135.455-.219s.185-.152.421-.152.421-.067.421-.152.169-.219.371-.287a1.767,1.767,0,0,0,.607-.337.955.955,0,0,1,.64-.236c.219,0,.4-.1.4-.219,0-.135.2-.337.472-.472a2.108,2.108,0,0,0,.59-.438.509.509,0,0,1,.371-.219c.135,0,.253-.067.253-.169,0-.084.152-.169.337-.169s.337-.1.337-.2a3.78,3.78,0,0,1,.809-1.062,3.5,3.5,0,0,0,1.213-2.107c0-.27-.1-.219-.573.3a21.015,21.015,0,0,1-7.6,4.466,14.052,14.052,0,0,1-5.241.792,8.449,8.449,0,0,1-3.135-.354c-1.247-.421-1.5-.556-4.786-2.528a15.584,15.584,0,0,0-1.483-.826c-.051,0-.1.286-.1.657,0,.556.067.674.506.86.287.118.506.253.506.32a1.932,1.932,0,0,0,.674.421c.371.185.674.421.674.556,0,.118.169.219.354.219.489,0,1.669.674,1.669.961,0,.118.135.219.32.219a6.09,6.09,0,0,1,1.433.59,7.607,7.607,0,0,0,1.8.691c.506.084.657.185.657.455,0,.287-.084.32-.674.219a10.517,10.517,0,0,1-3.994-1.736c-1.1-.657-2.208-1.315-2.494-1.466-.27-.152-.876-.506-1.315-.775-.758-.472-.843-.489-1.3-.253-.758.388-.742.556.067,1.062.893.522,1.129.994.674,1.331-.4.287-.573.27-.573-.051,0-.337-.3-.624-.944-.893-.472-.185-.624-.169-1.213.135-.674.337-.876.624-.876,1.2,0,.455-1.146.843-2.528.843-1.786,0-2.528-.388-2.528-1.331,0-.455-.067-.539-.792-.758a27.205,27.205,0,0,1-8.7-4.668l-.792-.691v.522c0,.354.084.522.253.522.135,0,.253.084.253.185s.236.371.506.607a1.278,1.278,0,0,1,.506.657.245.245,0,0,0,.253.236.259.259,0,0,1,.253.253c0,.135.152.253.337.253s.337.051.337.135c0,.067.219.219.472.337a3,3,0,0,1,.809.506,26.572,26.572,0,0,0,2.933,1.584,16.8,16.8,0,0,0,5.6,1.989c.354,0,.472.084.472.337,0,.27-.1.337-.539.32A7.04,7.04,0,0,1,174.238,250.8Zm3.185-1.786a1.3,1.3,0,0,0,.573-.573c.034-.219-.169-.253-1.433-.236a13.081,13.081,0,0,1-2.107-.118c-.556-.118-.64-.084-.64.169,0,.489.236.725.944.994A3.483,3.483,0,0,0,177.424,249.017Z" transform="translate(-118.537 -173.502)" fill="#0060f5"/>
      <path id="Path_1226" data-name="Path 1226" d="M206,280.225c0-.236.219-.371.927-.539a2.16,2.16,0,0,0,.927-.354c0-.067.169-.185.371-.253a1.768,1.768,0,0,0,.607-.337c.236-.253,1.382-.32,1.382-.1a14.138,14.138,0,0,1-2.916,1.7C206.539,280.629,206,280.579,206,280.225Z" transform="translate(-147.686 -203.024)" fill="#0060f5"/>
      <path id="Path_1227" data-name="Path 1227" d="M248.8,282.556a.373.373,0,0,1-.3-.32c0-.169.219-.236.843-.236.607,0,.843.067.843.236C250.185,282.573,249.494,282.742,248.8,282.556Z" transform="translate(-175.861 -205.339)" fill="#0060f5"/>
      <path id="Path_1228" data-name="Path 1228" d="M195.84,249.274c-.59-.287-.59-.3-.59-1.365,0-.978.034-1.112.472-1.433a2.973,2.973,0,0,1,1.736-.4c2.039-.118,3.1.489,3.1,1.77a1.522,1.522,0,0,1-1.112,1.567A7.057,7.057,0,0,1,195.84,249.274Z" transform="translate(-140.56 -181.512)" fill="#0060f5"/>
      <path id="Path_1229" data-name="Path 1229" d="M289.438,229.354c-.051-.371-.185-.674-.27-.674-.1,0-.168-.27-.168-.59,0-.522.051-.59.438-.59.354,0,.4.051.32.337a.61.61,0,0,0,.067.556,3.172,3.172,0,0,1,.286.927c.1.64.067.708-.219.708C289.624,230.028,289.522,229.876,289.438,229.354Z" transform="translate(-202.709 -169.209)" fill="#0060f5"/>
      <path id="Path_1230" data-name="Path 1230" d="M190.822,199.621c-.691-.1-1.433-.421-1.433-.59,0-.084-.185-.152-.421-.152a3.543,3.543,0,0,1-1.213-.472,11.69,11.69,0,0,0-1.1-.59.429.429,0,0,1-.3-.354c0-.371-.826-.944-1.382-.944-.573,0-1.82-.657-1.82-.961,0-.118-.135-.219-.32-.219a6.3,6.3,0,0,1-1.517-.708c-.927-.573-1.2-.809-1.2-1.112,0-.219.067-.337.169-.287a.393.393,0,0,0,.337,0c.27-.169-.118-.725-.691-1.028-.708-.354-.927-.084-.4.472a2.215,2.215,0,0,1,.421.556c0,.2-.91.067-2.292-.337a6.461,6.461,0,0,0-4.213-.084,18.709,18.709,0,0,0-4.635,2.124c-1.921,1.112-2.68,1.062-5.006-.388a7.035,7.035,0,0,1-.961-.742c-.489-.455-.506-.522-.421-1.618.118-1.584.927-2.764,2.966-4.315a19.149,19.149,0,0,1,10.955-3.994,8.632,8.632,0,0,1,5.376,1.652c.674.438.674.438.253.556a5.851,5.851,0,0,1-1.045.135c-.657.017-.86.287-.371.472.4.152,2.124-.27,1.972-.506-.1-.169.994.4,2.949,1.517l.708.421v-2.191l1.079-.607c1.247-.708,1.365-.725,1.112-.27-.253.472.286.691.607.253.3-.421.3-.556-.051-.624-.219-.034-.135-.152.32-.421,2.157-1.281,5.444-.809,9.792,1.4,3.27,1.669,5.41,3.253,6.522,4.871.624.91.758,2.73.253,3.286a5.757,5.757,0,0,1-2.511,1.348c-.522,0-1.281.455-1.281.742a33.171,33.171,0,0,1-5.73,3.3,7.32,7.32,0,0,1-2.949.421c-1.112.034-2.242.017-2.528-.017Zm-.674-1.416a1.033,1.033,0,0,1,.337-.809,2.389,2.389,0,0,0,.421-.607c0-.253-.691-.067-1.112.286-.489.421-.607,1.23-.236,1.466C189.9,198.745,190.249,198.543,190.148,198.206Zm7.112-.573c.185-.169-.826-.438-1.635-.438-.876,0-1.685.236-1.685.472A12.218,12.218,0,0,0,197.26,197.633Zm-10.4-.742c0-.253-.59-.691-1.163-.893-.843-.3-.809-.051.084.506C186.625,197.043,186.861,197.127,186.861,196.891Zm6.725-1.281c.809-.286.944-.708.169-.522a8.448,8.448,0,0,1-1.5.185c-1.3.051-1.3.051-.944.32A2.979,2.979,0,0,0,193.586,195.61Zm4.837-.522c.185-.708-.624-1.584-1.23-1.365-.236.1-.219.169.118.522a.8.8,0,0,1,.27.826c-.067.253-.017.438.118.489C198.035,195.678,198.322,195.492,198.423,195.088Zm3.944.051c.725-.421.893-.742.3-.539-.522.152-1.146.573-1.146.758C201.524,195.576,201.642,195.543,202.367,195.138Zm-17.241-.573c.3-.236.556-.539.556-.674,0-.371-.573-.27-1.011.185a2.745,2.745,0,0,1-.978.607c-.438.135-.522.236-.354.337C183.693,195.256,184.485,195.054,185.125,194.565Zm-19.2-.843a1.765,1.765,0,0,1,.792-.674c.607-.253.792-.573.337-.573a3.742,3.742,0,0,0-.927.27c-.674.27-1.011.657-1.011,1.146C165.12,194.329,165.727,194.194,165.929,193.723Zm23.932-.455a1.1,1.1,0,0,0-.64-1.3c-.674-.287-.792-.118-.354.438a.982.982,0,0,1,.253.86c-.1.371-.067.4.287.354A.541.541,0,0,0,189.861,193.268Zm4.079-.27c0-.084-.253-.236-.556-.337a2.608,2.608,0,0,1-.927-.607c-.59-.674-1.1-.455-.59.236C192.288,192.9,193.94,193.453,193.94,193Zm8.326-.253c.522-.219,1.112-.826,1.112-1.146,0-.3-.742-.1-1.028.27a2.167,2.167,0,0,1-.91.607c-.32.1-.59.27-.59.354C200.85,193.065,201.625,193.015,202.266,192.745Zm-17.022-.371c.506-.2.27-.4-.455-.4a3.7,3.7,0,0,1-1.382-.337c-.826-.421-1.264-.169-.59.337a3.122,3.122,0,0,0,2.427.4Zm12.421-.573a1.456,1.456,0,0,1,.4-.775c.27-.2.219-.573-.084-.573a2.291,2.291,0,0,0-.657.438c-.539.455-.674,1.028-.32,1.382C197.327,192.593,197.547,192.425,197.665,191.8Zm-22.938,0c0-.084-.185-.287-.438-.438-.337-.219-.472-.236-.624-.084-.152.169-.135.27.118.455C174.171,192,174.727,192.054,174.727,191.8Zm-5.09-.539c-.185-.573-2.073-1.028-2.9-.708-.539.2-.253.4.624.4a3.6,3.6,0,0,1,1.3.253c.522.3,1.062.32.978.051Zm11.258-.371c.152-.388-.2-.876-.843-1.18-1.045-.489-1.6-.2-.607.32a1.616,1.616,0,0,1,.674.674C180.288,191.161,180.743,191.262,180.9,190.891Zm6.741-.017a2.15,2.15,0,0,1,.691-.607c.4-.253.522-.4.371-.489-.455-.286-1.669.472-1.669,1.045C187.03,191.194,187.5,191.228,187.637,190.874Zm2.9-1.028a8.639,8.639,0,0,1-2.157-1.517c0-.152-.169-.236-.472-.236a1.106,1.106,0,0,1-.674-.2c-.1-.1-.236-.152-.287-.1-.067.051.32.337.843.64a3.955,3.955,0,0,1,1.045.775.539.539,0,0,0,.455.253,5.845,5.845,0,0,1,1.618.826,7.62,7.62,0,0,0,1.517.826A10.1,10.1,0,0,0,190.535,189.846Zm-14.208-.118a.806.806,0,0,1,.185-.86c.438-.455.051-.742-.506-.371-.775.506-.708,1.786.084,1.786C176.378,190.284,176.412,190.2,176.328,189.728Zm8.747-.051c.573-.219.219-.388-.944-.455a7.6,7.6,0,0,1-1.6-.2c-.3-.1-.388-.067-.388.152a.579.579,0,0,0,.388.438,6.826,6.826,0,0,0,2.545.067Zm8.831-.438c.539-.337.708-.86.354-1.079-.118-.067-.371.118-.607.421-.219.287-.472.522-.556.522a3.027,3.027,0,0,0-.624.185c-.371.135-.4.2-.219.337C192.575,189.829,193.2,189.678,193.906,189.239Zm9.674.118c.034-.556-2.36-.826-3-.337-.371.287-.32.3,1.112.27a3.417,3.417,0,0,1,1.348.152C203.327,189.627,203.563,189.593,203.58,189.357ZM172.553,189c.506-.253.792-.843.522-1.112-.118-.118-.32,0-.624.354a2.84,2.84,0,0,1-1.028.691c-.32.118-.573.27-.573.371C170.85,189.526,171.929,189.341,172.553,189Zm-4.331-.051c.27-.421-1.146-.792-2.343-.624-.472.084-.758.2-.758.354,0,.169.236.2.978.135a4.138,4.138,0,0,1,1.382.084C168.019,189.138,168.12,189.138,168.221,188.953Zm21.59-1.213c.185-.287-.017-.354-.843-.219-.539.067-.725.152-.573.253C188.732,187.975,189.693,187.959,189.811,187.74Zm9.657-.472c.067-.185-.051-.219-.522-.135a4.656,4.656,0,0,1-2.09-.3c-.573-.185-.506.354.084.573C197.614,187.655,199.367,187.554,199.468,187.268Zm-21.455-.522c.2-.64-.624-1.5-1.213-1.281-.236.1-.219.169.118.522a.779.779,0,0,1,.27.809.811.811,0,0,0,0,.506C177.356,187.47,177.9,187.116,178.013,186.745Zm15.708-.067.455-.4-.573-.354a2.235,2.235,0,0,0-2.7.4,2.261,2.261,0,0,0,2.815.354Zm-22.584-.017c.809-.337,1.23-.725,1.23-1.129,0-.421-.455-.388-.708.051a2.305,2.305,0,0,1-.944.674c-.4.169-.674.388-.624.489C170.227,186.981,170.412,186.964,171.137,186.661Z" transform="translate(-118.773 -140.084)" fill="#0060f5"/>
      <path id="Path_1231" data-name="Path 1231" d="M39.067,169.767c-1.989-1.2-4.163-2.494-4.837-2.882a4.386,4.386,0,0,1-1.23-.91,43.36,43.36,0,0,1,4.6-2.933c2.511-1.5,4.719-2.815,4.888-2.916a.439.439,0,0,1,.59,0c.421.287,8.646,5.191,9.1,5.427.2.1.371.286.371.4a5.6,5.6,0,0,1-1.483,1.079c-.809.472-3,1.786-4.888,2.9-1.871,1.129-3.438,2.039-3.455,2.022C42.708,171.958,41.056,170.963,39.067,169.767Z" transform="translate(-33 -124.47)" fill="#0060f5"/>
      <path id="Path_1232" data-name="Path 1232" d="M361.626,159.545c-1.112-.27-3.2-.758-4.635-1.1-1.433-.32-3-.708-3.472-.843-.775-.219-3.253-.792-4.483-1.028-.607-.118-.59-.286.084-.742a2.924,2.924,0,0,0,.59-.522.324.324,0,0,1,.27-.135,1,1,0,0,0,.522-.337c.27-.3.27-.337.017-.438-.472-.185-.3-.4.32-.4.556,0,.59.034.59.556,0,.59-.253.961-.64.961-.236,0-.792.472-.691.573a17.585,17.585,0,0,0,1.753.438c.927.2,2.073.472,2.528.607.472.118,1.567.388,2.444.573.876.2,2.7.624,4.045.944,3.337.809,3.152.775,3.27.489a.406.406,0,0,1,.354-.253c.135,0,.253-.067.253-.169,0-.084.152-.169.337-.169.253,0,.337-.118.337-.438a.849.849,0,0,0-.826-.91c-.506,0-.438-.219.169-.573.438-.27.556-.27.657-.084.084.135.371.522.657.893a2.917,2.917,0,0,1,.506.758,12.048,12.048,0,0,1-2.713,1.854c-.118-.017-1.129-.236-2.241-.506Z" transform="translate(-242.218 -120.484)" fill="#0060f5"/>
      <path id="Path_1233" data-name="Path 1233" d="M294.511,121.623l-1.146-.708.371-.3a1.4,1.4,0,0,1,.742-.3,2.438,2.438,0,0,0,.758-.236c.4-.219.388-.236-.961-1.028l-1.382-.792v-2.511l-.876-1.079a6.917,6.917,0,0,0-.978-1.1c-.067,0-.185-.169-.286-.371a26.772,26.772,0,0,0-1.719-2.326,16.035,16.035,0,0,1-1.534-2.14c0-.118.185-.337.438-.489.236-.152.388-.388.337-.506-.051-.152.034-.236.236-.236.27,0,.337.118.337.573,0,.32-.067.607-.152.64-.286.1,0,.944.354,1.028a.682.682,0,0,1,.421.438c.051.2.152.354.236.354s.152.135.152.3a.6.6,0,0,0,.388.455.774.774,0,0,1,.421.725c.051.4.135.539.388.539.236,0,.354.152.438.506.067.354.185.506.4.506.236,0,.32.118.32.421,0,.236.1.421.219.421.169,0,.219-.236.152-.927l-.067-.927h.64a4.235,4.235,0,0,1,1.972.758c1.281.758,1.584,1.1,1.011,1.1-.286,0-.3.219-.253,2.612a15.147,15.147,0,0,0,.169,2.612c.118,0,4.854-1.551,6.438-2.107.893-.32,8.427-2.781,11.932-3.893.472-.152.876-.337.876-.421a.166.166,0,0,1,.169-.152c.1,0,.169.2.169.472,0,.455-.067.472-4.854,2.022-2.663.876-5.444,1.786-6.185,2.056-1.348.472-1.551.539-3.624,1.18-.607.185-1.736.556-2.528.826a8.821,8.821,0,0,1-1.888.506.855.855,0,0,0-.607.27,1.026,1.026,0,0,1-.624.388l-.472.135.64.371.64.388,2.966-.944c1.635-.522,3.135-1.028,3.354-1.112a40.91,40.91,0,0,1,4.972-1.5c.371,0,.455.084.455.4,0,.236-.067.472-.169.522-.084.051-.169,0-.169-.135,0-.2-.556-.067-2.393.556-5.747,1.921-8.781,2.865-9.118,2.865A5.873,5.873,0,0,1,294.511,121.623Z" transform="translate(-201.715 -89.658)" fill="#0060f5"/>
      <path id="Path_1234" data-name="Path 1234" d="M84.274,116.882c-2.916-.4-5.848-2.242-6.168-3.876-.1-.421-.051-.506.236-.506a.5.5,0,0,1,.438.3,4.185,4.185,0,0,0,1.888,2.022,10.712,10.712,0,0,0,5.848,1.551c1.281,0,1.635.051,1.635.236,0,.118-.169.27-.371.337A14.721,14.721,0,0,1,84.274,116.882Z" transform="translate(-62.87 -92.973)" fill="#0060f5"/>
      <path id="Path_1235" data-name="Path 1235" d="M108.5,111.938c0-.219.236-.354.978-.522A8.841,8.841,0,0,0,112.6,110.1a.431.431,0,0,1,.287-.219c.27,0,.91-.758,1.348-1.551.371-.708.388-.86.2-1.365-.236-.64-.27-1.466-.067-1.466.236,0,.691.927.792,1.618.3,1.82-1.618,3.809-4.534,4.7C108.955,112.326,108.5,112.359,108.5,111.938Z" transform="translate(-83.051 -88.332)" fill="#0060f5"/>
      <path id="Path_1236" data-name="Path 1236" d="M315.5,117.511c0-.084.118-.169.253-.169.152,0,.253-.152.253-.421,0-.3.084-.421.337-.421.27,0,.337.118.337.59,0,.556-.034.59-.59.59C315.77,117.68,315.5,117.612,315.5,117.511Z" transform="translate(-220.277 -95.625)" fill="#0060f5"/>
      <path id="Path_1237" data-name="Path 1237" d="M310.2,98.961a1.064,1.064,0,0,0-.556-.253c-.27-.051-.876-.185-1.348-.32-.742-.219-.893-.219-.893-.034,0,.135-.152.236-.337.236-.286,0-.337-.118-.337-.86,0-.657-.051-.843-.236-.775-.118.051-.4-.118-.624-.354-.388-.472-2.444-2.73-3.674-4.062-.556-.607-.691-.876-.691-1.4,0-.64,0-.64.674-.64a16.534,16.534,0,0,1,2.815.607c1.18.32,2.579.708,3.084.826.522.135,1.281.337,1.685.489.421.135,1.1.337,1.483.438.691.185.725.2.472.489-.219.236-.27.742-.27,2.68,0,2.107.034,2.376.27,2.275.2-.067.253,0,.2.3-.051.354-.152.4-.843.455a1.512,1.512,0,0,1-.876-.1Z" transform="translate(-210.996 -78.388)" fill="#0060f5"/>
      <path id="Path_1238" data-name="Path 1238" d="M333,112.573c0-.219.59-.556.977-.573.253,0,.371.1.371.337,0,.286-.118.337-.674.337C333.3,112.674,333,112.624,333,112.573Z" transform="translate(-231.878 -92.641)" fill="#0060f5"/>
      <path id="Path_1239" data-name="Path 1239" d="M78,106.916c0-.371.506-1.416.691-1.416.169,0,.2.742.051,1.315C78.624,107.236,78,107.337,78,106.916Z" transform="translate(-62.832 -88.332)" fill="#0060f5"/>
      <path id="Path_1240" data-name="Path 1240" d="M213.8,63.528l-4.955-2.966.826-.489c.455-.27,2.6-1.551,4.753-2.831s4.045-2.427,4.18-2.545a.363.363,0,0,1,.539-.017c.371.236,3.674,2.208,6.775,4.045,1.348.792,2.579,1.517,2.747,1.635.337.236.792-.067-5.646,3.775-2.208,1.3-4.062,2.376-4.129,2.376C218.81,66.495,216.535,65.163,213.8,63.528Z" transform="translate(-149.576 -54.569)" fill="#0060f5"/>
    </g>
    <g id="Group_31" data-name="Group 31" transform="translate(38.471 66.68)">
      <path id="Path_1241" data-name="Path 1241" d="M373.241,388.618c-1.483-.876-2.882-1.685-3.118-1.786a23.365,23.365,0,0,1-2.966-1.837c-.118-.2.219-.455,1.669-1.247,1.028-.573,1.382-.91.961-.91a.169.169,0,0,1-.169-.169c0-.084.253-.169.556-.169.708,0,5.983,2.966,6.05,3.4.051.3.388.135,4.416-2.191,1.5-.876,1.786-.994,1.786-.742a6.464,6.464,0,0,0,1.517.978,10.5,10.5,0,0,1,1.517.927c0,.1-4.685,2.9-5.865,3.506-.253.118-1.1.607-1.854,1.045a8.125,8.125,0,0,1-1.6.809C376.022,390.219,374.725,389.494,373.241,388.618Z" transform="translate(-259.979 -284.075)" fill="#3b00a2"/>
      <path id="Path_1242" data-name="Path 1242" d="M97.759,357.078c-1.348-.1-1.416-.118-1.938-.708-1.584-1.837-3.034-3.455-3.27-3.64a4.537,4.537,0,0,0-1.955-.219,6.322,6.322,0,0,1-2.09-.219,19.717,19.717,0,0,1-2.157-2.225c-2.006-2.275-1.9-2.225-4.719-2.258l-1.2-.017L78.6,345.736c-1.011-1.112-1.938-2.157-2.073-2.275-.152-.168-.573-.236-1.264-.219-.556.017-1.416.017-1.888.017l-.86-.017-1.837-2.022c-.994-1.112-1.888-2.14-1.972-2.309-.185-.32-.118-.388,1.3-1.247.792-.489.809-.522.522-.826-.3-.32-.287-.337.27-.337.438,0,.725.169,1.331.758a2.193,2.193,0,0,0,1.6.86c1.449.152,1.6.219,1.6.59,0,.253-.084.32-.253.253-.472-.169-.253.32.489,1.129.708.758.775.792,1.618.792.876,0,.893,0,.59-.337s-.287-.337.287-.337c.506,0,.725.152,1.719,1.264l1.129,1.247,1.129.051c1.028.051,1.129.084,1.18.438.034.253-.034.371-.2.371-.388,0-.354.1.438,1.028.674.809.725.826,1.618.826.91,0,.927,0,.624-.337s-.287-.337.27-.337c.506-.017.725.152,1.753,1.264l1.18,1.264,1.4.1c1.18.1,1.382.169,1.382.421,0,.219-.152.32-.539.354l-.539.051.758.876c.725.843.775.876,1.652.876.775.017.876-.017.691-.236s-.118-.253.388-.253c.522,0,.725.152,1.669,1.213l1.1,1.2,1.163.1c1.062.084,1.163.135,1.213.506.051.3,0,.371-.2.3-.455-.185-.3.152.472,1.011l.742.809,1.82.084a6.332,6.332,0,0,1,1.871.253,7.223,7.223,0,0,1-1.753,1.23c-1.382.792-1.955,1.045-2.41,1.011-.32-.017-1.23-.067-2.006-.118Z" transform="translate(-62.09 -253.58)" fill="#3b00a2"/>
      <path id="Path_1243" data-name="Path 1243" d="M172,377.435c0-.438.253-.539.674-.253.219.152.2.2-.067.421C172.135,377.958,172,377.924,172,377.435Z" transform="translate(-130.618 -280.442)" fill="#3b00a2"/>
      <path id="Path_1244" data-name="Path 1244" d="M161.55,357.552a6.932,6.932,0,0,1,1.517-.893,12.405,12.405,0,0,0,1.955-1.146c.27-.253.522-.354.708-.27.236.084.236.118.017.2a1.2,1.2,0,0,0-.337.185,2.012,2.012,0,0,1-.506.32,10.69,10.69,0,0,0-2.174,1.348c-.135.219-1.2.438-1.18.253Z" transform="translate(-123.69 -265.986)" fill="#3b00a2"/>
      <path id="Path_1245" data-name="Path 1245" d="M121.708,275.338c-.169-.118-.809-.472-1.382-.792-.893-.506-3.64-2.073-11.258-6.455-.64-.371-1.365-.792-1.6-.961-.236-.152-.843-.489-1.348-.758a10.523,10.523,0,0,1-1.18-.691c-.135-.1-.708-.438-1.264-.742-.556-.286-1.466-.809-2.022-1.129s-1.315-.758-1.685-.961c-.371-.219-1.685-.977-2.933-1.7-1.247-.708-2.511-1.433-2.781-1.6-.287-.152-1.247-.708-2.124-1.213s-1.938-1.112-2.36-1.348-2.494-1.433-4.635-2.663c-2.124-1.23-4.3-2.461-4.8-2.747-.506-.27-.994-.556-1.1-.624-.152-.118-6.489-3.775-9.354-5.393-1.348-.758-10.6-6.1-12.809-7.382-.876-.522-2.124-1.23-2.781-1.6-1.146-.64-2.511-1.433-4.163-2.376-.944-.539-1.045-.674-.758-.91a34.246,34.246,0,0,1,3.4-1.938c.169,0,.809.371,8.68,4.9,2.174,1.247,6.961,3.994,10.618,6.1,3.657,2.09,8.208,4.7,10.1,5.8s5.983,3.438,9.1,5.225,6.961,3.994,8.528,4.9c1.584.91,3.438,1.972,4.129,2.359.691.4,1.719.977,2.275,1.3s2.006,1.163,3.2,1.854c1.213.691,2.916,1.685,3.792,2.191s1.938,1.112,2.36,1.348,2.022,1.163,3.573,2.056c1.837,1.062,2.916,1.584,3.1,1.5.152-.051.927-.489,1.736-.944.792-.472,1.938-1.129,2.545-1.466,1.382-.792,9-5.191,12.556-7.247,1.483-.86,3.118-1.786,3.624-2.073.506-.27,1.011-.573,1.112-.64.1-.084.708-.438,1.348-.792.64-.371,1.652-.944,2.258-1.3s1.584-.927,2.191-1.264,2.124-1.213,3.371-1.938,2.764-1.6,3.371-1.938c2.056-1.163,6.826-3.927,7.449-4.331a5.694,5.694,0,0,1,.725-.388,5.7,5.7,0,0,0,.725-.388c.337-.219,1.972-1.18,3.64-2.14,1.652-.944,3.152-1.871,3.32-2.039.708-.708,1.247-.539,4.433,1.483.775.506,1.079.253-3.219,2.713-3.994,2.292-4.079,2.36-5.343,3.084-.556.337-3.371,1.955-6.253,3.59-2.865,1.652-5.494,3.169-5.815,3.371-.32.219-1.534.927-2.7,1.584-1.163.64-3.236,1.837-4.635,2.646-1.382.809-2.865,1.669-3.286,1.9-1.1.607-8.932,5.123-10.028,5.781-.27.169-.961.539-1.517.843a10.008,10.008,0,0,0-1.264.742c-.135.1-.674.421-1.18.708-1.938,1.045-5.494,3.118-5.747,3.354a.8.8,0,0,1-.4.236,11.371,11.371,0,0,0-1.449.758C122.382,275.608,122.214,275.658,121.708,275.338Z" transform="translate(-49.231 -183.873)" fill="#3b00a2"/>
      <path id="Path_1246" data-name="Path 1246" d="M149.782,359.758c-.32-.388.084-.758.809-.758.573,0,.573.017.3.32-.27.287-.27.32,0,.421a2.586,2.586,0,0,0,.978.017,3.4,3.4,0,0,1,1.2.067c.388.118.1.152-1.281.169C150.389,360.011,149.95,359.961,149.782,359.758Z" transform="translate(-115.815 -268.496)" fill="#3b00a2"/>
      <path id="Path_1247" data-name="Path 1247" d="M154.5,356.607c0-.438.27-.607,1.028-.607.674,0,.607.2-.169.64C154.551,357.1,154.5,357.1,154.5,356.607Z" transform="translate(-119.017 -266.507)" fill="#3b00a2"/>
      <path id="Path_1248" data-name="Path 1248" d="M159.5,353.921c0-.337.084-.421.4-.421.573,0,.691.27.236.573C159.618,354.444,159.5,354.41,159.5,353.921Z" transform="translate(-122.331 -264.85)" fill="#3b00a2"/>
      <path id="Path_1249" data-name="Path 1249" d="M130.108,346.1c-.169-.2-.624-.253-2.107-.253-1.618,0-1.921-.051-2.157-.3-.371-.421-.354-.489.135-.607.236-.067.421-.185.421-.27,0-.1.27-.169.59-.169.691,0,.758.185.169.506-.236.118-.421.286-.421.354a6.273,6.273,0,0,0,1.736.185c1.4.034,1.82,0,2.225-.236.657-.388.758-.388.758.1a.493.493,0,0,1-.337.522c-.185.051-.337.185-.337.27,0,.236-.438.185-.674-.1Z" transform="translate(-99.849 -258.884)" fill="#3b00a2"/>
      <path id="Path_1250" data-name="Path 1250" d="M147,341.927a3.351,3.351,0,0,1,1.062-.927c.067,0,.118.236.118.506,0,.472-.051.506-.59.506C147.27,342.011,147,341.978,147,341.927Z" transform="translate(-114.045 -256.563)" fill="#3b00a2"/>
      <path id="Path_1251" data-name="Path 1251" d="M136.5,339.936c0-.438.169-.506.472-.2.286.287.253.421-.135.523-.27.067-.337,0-.337-.32Z" transform="translate(-107.084 -255.6)" fill="#3b00a2"/>
      <path id="Path_1252" data-name="Path 1252" d="M143.211,341.1a2.855,2.855,0,0,1,.758,0c.2.034.034.067-.388.067S142.992,341.134,143.211,341.1Z" transform="translate(-111.469 -256.613)" fill="#3b00a2"/>
      <path id="Path_1253" data-name="Path 1253" d="M106.7,332.933c-.169-.185-.624-.253-1.921-.253a15.619,15.619,0,0,1-2.073-.1c-.843-.236-.506-1.079.438-1.079.539,0,.708.236.27.4-.135.051-.253.169-.253.27a12.494,12.494,0,0,0,4.1-.067c.236-.118.287-.051.287.3,0,.539-.539.876-.843.522Z" transform="translate(-84.36 -250.265)" fill="#3b00a2"/>
      <path id="Path_1254" data-name="Path 1254" d="M119.5,329.1a4.072,4.072,0,0,1,.994-.708c.657-.388.927-.64.809-.725-.118-.067.017-.118.3-.084.59.067.843.64.27.64-.2,0-.354.1-.354.253,0,.135-.084.253-.185.253a.82.82,0,0,0-.421.253C120.646,329.247,119.5,329.332,119.5,329.1Z" transform="translate(-95.814 -247.659)" fill="#3b00a2"/>
      <path id="Path_1255" data-name="Path 1255" d="M113.5,326.431c0-.32.051-.354.2-.2s.152.253,0,.4S113.5,326.751,113.5,326.431Z" transform="translate(-91.837 -246.713)" fill="#3b00a2"/>
      <path id="Path_1256" data-name="Path 1256" d="M83.354,319.051a3.105,3.105,0,0,0-1.989-.185c-.169.084-.3.1-.3.034,0-.118-.253-.169-1.6-.27a.515.515,0,0,1-.253-.876,1.244,1.244,0,0,1,.809-.253h.59l-.388.421c-.32.354-.354.421-.118.506a14.436,14.436,0,0,0,3.708-.152c.27-.135.3-.084.253.337C84.011,319.084,83.556,319.371,83.354,319.051Z" transform="translate(-69.005 -240.984)" fill="#3b00a2"/>
      <path id="Path_1257" data-name="Path 1257" d="M99.84,314.539c.169-.169.236-.371.169-.421-.051-.067.135-.118.438-.118.337,0,.573.1.64.27.135.354-.219.573-.944.573C99.6,314.843,99.587,314.826,99.84,314.539Z" transform="translate(-82.676 -238.664)" fill="#3b00a2"/>
      <path id="Path_1258" data-name="Path 1258" d="M89,312.446c0-.489.2-.539.522-.152.169.219.169.286-.034.421C89.1,312.951,89,312.9,89,312.446Z" transform="translate(-75.595 -237.363)" fill="#3b00a2"/>
      <path id="Path_1259" data-name="Path 1259" d="M175.5,265.549a16.853,16.853,0,0,1-4.955-1.786,21.5,21.5,0,0,1-6.168-4.079c-1.028-1.112-1.416-1.955-1.247-2.764.2-1.028.371-1.011,1.5.1a24.845,24.845,0,0,0,9.1,5.09c.742.236.792.287.792.826,0,.725.522,1.112,1.669,1.23,1.4.135,2.545-.421,2.545-1.247,0-.337.185-.506,1.062-.927l1.045-.522.927.607a4.781,4.781,0,0,1,1.045.843c.169.3-.084.489-1.972,1.551A6.9,6.9,0,0,1,175.5,265.549Z" transform="translate(-124.709 -200.325)" fill="#3b00a2"/>
      <path id="Path_1260" data-name="Path 1260" d="M228.488,264.7a10.233,10.233,0,0,1-3.152-1.5c-.64-.388-1.989-1.18-2.983-1.753l-1.8-1.062.1-1.214c.084-1.281.337-2.511.371-1.837.017.354.438.64,4.23,2.9,2.292,1.348,3.4,1.7,5.461,1.7a13.1,13.1,0,0,0,4.736-.792,19.738,19.738,0,0,0,7.8-4.719l.758-.876.3.388a1.685,1.685,0,0,1,.185,1.989c-.91,2.056-4.584,4.77-8.157,6.017a14.4,14.4,0,0,1-7.854.758Z" transform="translate(-162.803 -199.916)" fill="#3b00a2"/>
      <path id="Path_1261" data-name="Path 1261" d="M204.5,257.837c0-.286.1-.337.843-.337,1.247,0,1.112.472-.185.607C204.584,258.174,204.5,258.14,204.5,257.837Z" transform="translate(-152.163 -201.209)" fill="#3b00a2"/>
      <path id="Path_1262" data-name="Path 1262" d="M198,254.644c0-.388.034-.4.59-.219.32.1.59.27.59.4s-.219.219-.59.219C198.084,255.048,198,255,198,254.644Z" transform="translate(-147.854 -199.094)" fill="#3b00a2"/>
      <path id="Path_1263" data-name="Path 1263" d="M265.5,253.921c0-.371.067-.421.674-.421.758,0,.876.185.3.455C265.635,254.36,265.5,254.36,265.5,253.921Z" transform="translate(-192.602 -198.557)" fill="#3b00a2"/>
      <path id="Path_1264" data-name="Path 1264" d="M215,253.421c0-.371.067-.421.59-.421.725,0,.742.169.1.556C215.051,253.927,215,253.927,215,253.421Z" transform="translate(-159.124 -198.226)" fill="#3b00a2"/>
      <path id="Path_1265" data-name="Path 1265" d="M194.5,249.758c0-.742.017-.758.522-.758.455,0,.506.034.32.253a1.142,1.142,0,0,0-.135.758c.067.438.017.506-.32.506C194.534,250.517,194.5,250.433,194.5,249.758Z" transform="translate(-145.534 -195.574)" fill="#3b00a2"/>
      <path id="Path_1266" data-name="Path 1266" d="M219.063,251.205c.034-.32.152-.455.388-.455.472,0,.438.607-.051.775C219.046,251.66,219.013,251.626,219.063,251.205Z" transform="translate(-161.805 -196.734)" fill="#3b00a2"/>
      <path id="Path_1267" data-name="Path 1267" d="M280.5,243.054c0-.354.084-.522.253-.522.135,0,.253-.067.253-.169,0-.084.27-.169.59-.169.539,0,.59-.034.59-.506,0-.556.253-.742.843-.64l.371.051-.4.421a13.326,13.326,0,0,1-1.938,1.652l-.556.388Z" transform="translate(-202.546 -190.285)" fill="#3b00a2"/>
      <path id="Path_1268" data-name="Path 1268" d="M289,236.713c0-.725.27-1.213.674-1.213.506,0,.421.573-.169,1.213l-.489.556Z" transform="translate(-208.18 -186.624)" fill="#3b00a2"/>
      <path id="Path_1269" data-name="Path 1269" d="M162.9,236.36c-.4-.455-.4-.86,0-.86.27,0,.337.1.337.59C163.24,236.764,163.24,236.747,162.9,236.36Z" transform="translate(-124.386 -186.624)" fill="#3b00a2"/>
      <path id="Path_1270" data-name="Path 1270" d="M288.371,229.685a1.989,1.989,0,0,1-.371-1.1c0-.573.017-.59.624-.59.472,0,.573.051.438.185-.152.152-.135.287.017.556a3.02,3.02,0,0,1,.337.91c.084.472.051.539-.286.539A1.091,1.091,0,0,1,288.371,229.685Z" transform="translate(-207.518 -181.652)" fill="#3b00a2"/>
      <path id="Path_1271" data-name="Path 1271" d="M244.685,223.213c-1.416-.185-1.685-.3-1.685-.775v-.4l.725.287a6.372,6.372,0,0,0,2.646.287c2.326,0,2.831-.185,6.4-2.242,1.3-.758,2.393-1.365,2.444-1.365s.084.185.084.421c0,.32-.152.489-.624.725a4.243,4.243,0,0,0-.843.472,3.171,3.171,0,0,1-.758.421,2.861,2.861,0,0,0-.775.438,1.041,1.041,0,0,1-.64.219c-.236,0-.4.1-.4.236,0,.253-.354.438-.86.438-.169,0-.32.067-.32.135,0,.2-.944.506-2.191.691A8.848,8.848,0,0,1,244.685,223.213Z" transform="translate(-177.686 -175.686)" fill="#3b00a2"/>
      <path id="Path_1272" data-name="Path 1272" d="M235.64,225.37c-.472-.236-.64-.438-.64-.742,0-.472.067-.455,1.483.32a2.731,2.731,0,0,1,.876.64C237.359,225.842,236.264,225.707,235.64,225.37Z" transform="translate(-172.382 -179.208)" fill="#3b00a2"/>
      <path id="Path_1273" data-name="Path 1273" d="M225.5,218.967c0-.506.051-.506.691-.135.64.388.624.556-.1.556C225.567,219.389,225.5,219.338,225.5,218.967Z" transform="translate(-166.085 -175.401)" fill="#3b00a2"/>
      <path id="Path_1274" data-name="Path 1274" d="M165.375,212.144c-.27-.135-.472-.32-.472-.4,0-.1-.152-.169-.337-.169s-.337-.067-.337-.152-.185-.2-.421-.253c-.236-.067-.421-.185-.421-.27,0-.1-.1-.169-.219-.169-.438,0-.944-.725-.843-1.23l.1-.489.691.657a7.717,7.717,0,0,0,1.146.944,6.95,6.95,0,0,0,2.343,1.129,6.327,6.327,0,0,0,1.652-.742,18.709,18.709,0,0,1,4.635-2.124c1.567-.421,1.618-.421,1.618-.017,0,.253-.185.371-.876.506a33.847,33.847,0,0,0-5.528,2.562A2.754,2.754,0,0,1,165.375,212.144Z" transform="translate(-124.195 -168.763)" fill="#3b00a2"/>
      <path id="Path_1275" data-name="Path 1275" d="M217.185,214.219c0-.067-.27-.236-.59-.354s-.59-.287-.59-.371-.118-.152-.253-.152c-.152,0-.253-.152-.253-.421,0-.236.051-.421.1-.421a15.375,15.375,0,0,1,2.764,1.719c0,.067-.27.135-.59.135S217.185,214.286,217.185,214.219Z" transform="translate(-159.455 -171.377)" fill="#3b00a2"/>
      <path id="Path_1276" data-name="Path 1276" d="M284.5,212.075a2.415,2.415,0,0,1,.826-.657,5.521,5.521,0,0,0,1.213-1.062l.388-.556.152.556a.817.817,0,0,1-.152.876.993.993,0,0,1-.438.32,1.286,1.286,0,0,0-.472.337c-.337.337-1.517.489-1.517.185Z" transform="translate(-205.197 -169.587)" fill="#3b00a2"/>
      <path id="Path_1277" data-name="Path 1277" d="M204.657,209.61a6.8,6.8,0,0,0-1.4-.337c-.607-.1-.758-.185-.758-.455,0-.32.084-.337.742-.253a8.3,8.3,0,0,1,3.1,1.1C206.427,209.93,205.466,209.913,204.657,209.61Z" transform="translate(-150.837 -168.74)" fill="#3b00a2"/>
      <path id="Path_1278" data-name="Path 1278" d="M244.152,201.584a.309.309,0,0,1,.152-.556c.236,0,.236-.034,0-.253-.354-.354-.438-.32-.438.236v.506l-1.433-.876a8.22,8.22,0,0,1-1.433-.994c0-.084.253-.135.556-.152.287,0,.438-.051.337-.1-.219-.084-.32-.893-.1-.893a37.6,37.6,0,0,1,3.624,2.157c.371.32.219.64-.4.86C244.4,201.736,244.3,201.736,244.152,201.584Zm-.624-1.23c-.32-.219-.506-.219-.506,0,0,.1.169.169.388.169C243.713,200.522,243.73,200.489,243.528,200.354Zm-.708-.455c-.169-.034-.3-.152-.3-.236a.156.156,0,0,0-.169-.152c-.084,0-.169.118-.169.253,0,.169.152.253.472.236C242.921,199.983,242.989,199.949,242.82,199.9Z" transform="translate(-176.36 -162.096)" fill="#3b00a2"/>
      <path id="Path_1279" data-name="Path 1279" d="M234.2,195.025c-1.146-.691-1.416-1.079-.742-1.1.253,0,.371-.051.27-.1a.354.354,0,0,1-.219-.32.245.245,0,0,0-.253-.236c-.152,0-.253-.152-.253-.354,0-.388-.051-.4,1.146.253.994.556,1.1.775.371.775q-.506,0-.506.253c0,.152.152.253.388.253q.86,0,.758.708l-.051.4Z" transform="translate(-171.056 -158.216)" fill="#3b00a2"/>
      <path id="Path_1280" data-name="Path 1280" d="M246.182,190.469c-.91-.32-1.5-.994-1.247-1.449.438-.843,2.174-1.348,2.174-.657a.3.3,0,0,1-.32.337c-.438,0-1.416.826-.978.843.152,0,.286.067.286.152,0,.27,1.1.371,1.9.152a2.015,2.015,0,0,0,.792-.286,1.5,1.5,0,0,0-.994-.86c-.236,0-.354-.1-.354-.337,0-.792,1.888.017,1.989.86.067.539-.573,1.146-1.433,1.348A2.426,2.426,0,0,1,246.182,190.469Z" transform="translate(-178.929 -155.161)" fill="#3b00a2"/>
      <path id="Path_1281" data-name="Path 1281" d="M363.214,159.556c-.371-.084-1.736-.421-3.034-.725-1.3-.32-3.084-.725-3.961-.927-.876-.185-2.022-.455-2.528-.59-.506-.152-1.6-.4-2.444-.607-.826-.185-1.8-.4-2.157-.506l-.64-.169.725-.539c.4-.3.944-.691,1.2-.86.438-.27.455-.32.185-.506-.691-.506.32-.792,1.6-.438.337.084,1.551.388,2.713.657s3.438.809,5.056,1.2a16.927,16.927,0,0,0,3.506.624c.455-.084.539-.051.539.236,0,.32.017.32.522.067a1.348,1.348,0,0,1,.657-.219,5.148,5.148,0,0,1,.725.843l.607.792-1.129.826C363.888,159.775,363.989,159.725,363.214,159.556Z" transform="translate(-247.591 -132.287)" fill="#3b00a2"/>
      <path id="Path_1282" data-name="Path 1282" d="M307.388,132.731a4.335,4.335,0,0,0-1.028-.624,3.372,3.372,0,0,1-.859-.522c0-.219.438-.455,1.146-.657a1.446,1.446,0,0,0,.826-.438.681.681,0,0,1,.539-.253,9.014,9.014,0,0,0,1.871-.506c.792-.27,1.972-.657,2.612-.843.657-.2,1.719-.556,2.359-.775.657-.236,1.567-.539,2.022-.691,5.7-1.786,10.281-3.4,10.331-3.64.084-.388.489-.337.624.084a8.488,8.488,0,0,1,0,1.921c-.118,1.416-.152,1.584-.489,1.669a5.244,5.244,0,0,1-2.865-.32l-1.5-.4-1.315.91c-1.281.927-1.5,1.163-1.5,1.786a.3.3,0,0,1-.337.32c-.185,0-.337-.118-.337-.253a.542.542,0,0,0-.034-.253c-.034,0-1.079.337-2.326.758s-2.848.944-3.539,1.163-2.208.708-3.354,1.1C307.978,133,307.657,133.068,307.388,132.731Z" transform="translate(-219.119 -112.389)" fill="#3b00a2"/>
      <path id="Path_1283" data-name="Path 1283" d="M291.782,114.152c-.506-.607-1.146-1.433-1.433-1.82-.59-.843-1.247-1.685-2.258-2.933l-.742-.927.489-.4c.4-.354.438-.455.253-.742-.185-.3-.152-.32.388-.27.522.051.775.286,2.494,2.41a12.562,12.562,0,0,0,2.461,2.6c.388.185.539.354.539.657,0,.287-.067.371-.253.3-.135-.051-.371-.152-.522-.219-.236-.084-.253-.017-.152.438.135.59-.034,2.039-.219,2.039A6.719,6.719,0,0,1,291.782,114.152Z" transform="translate(-207.087 -101.461)" fill="#3b00a2"/>
      <path id="Path_1284" data-name="Path 1284" d="M309.853,126.438c-.438-.337-.371-.438.286-.438.472,0,.59.067.59.337C310.729,126.725,310.291,126.775,309.853,126.438Z" transform="translate(-221.82 -114.034)" fill="#3b00a2"/>
      <path id="Path_1285" data-name="Path 1285" d="M83.046,111.226a14.037,14.037,0,0,1-2.107-.792,7.08,7.08,0,0,1-2.747-2.511,3.718,3.718,0,0,1,.084-2.376,1.55,1.55,0,0,0,.152-.826c-.169-.438.674-.286,1.129.185a9.5,9.5,0,0,0,5.6,2.444,7.37,7.37,0,0,0,3.084-.067,10.113,10.113,0,0,0,4.837-2.124c.758-.691,1.6-.961,1.4-.421a1.231,1.231,0,0,0,.152.742,3.1,3.1,0,0,1-.219,2.882,7.1,7.1,0,0,1-4.517,2.848A17.643,17.643,0,0,1,83.046,111.226Z" transform="translate(-68.327 -99.749)" fill="#3b00a2"/>
      <path id="Path_1286" data-name="Path 1286" d="M315.774,113.65c-.051-.084.051-.185.219-.236.236-.051.286-.185.236-.522a5.932,5.932,0,0,1,.017-1.331l.118-.91,1.045.32c.573.169,1.348.4,1.719.506a7.679,7.679,0,0,1,1.045.337.716.716,0,0,0,.539.067c.118-.084.185.034.185.287,0,.371-.185.455-1.9,1.011C317.123,113.785,315.96,113.953,315.774,113.65Z" transform="translate(-225.921 -103.858)" fill="#3b00a2"/>
      <path id="Path_1287" data-name="Path 1287" d="M314,105.668c0-.607,0-.607.3-.287.775.876.792.91.219.91C314.034,106.292,314,106.258,314,105.668Z" transform="translate(-224.754 -100.224)" fill="#3b00a2"/>
      <path id="Path_1288" data-name="Path 1288" d="M325.663,97.3c-.91-.253-1.163-.388-1.163-.624,0-.2.64-.185,1.685.051.624.135.843.27.809.455C326.927,97.534,326.607,97.551,325.663,97.3Z" transform="translate(-231.714 -94.501)" fill="#3b00a2"/>
      <path id="Path_1289" data-name="Path 1289" d="M305,96.187c0-.455.034-.489.32-.32a2.4,2.4,0,0,1,.506.506c.169.287.135.32-.32.32S305,96.642,305,96.187Z" transform="translate(-218.787 -93.996)" fill="#3b00a2"/>
      <path id="Path_1290" data-name="Path 1290" d="M316.372,94.7c-1.551-.371-1.028-.91.59-.59.354.084.522.2.522.421C317.485,94.867,317.266,94.9,316.372,94.7Z" transform="translate(-225.71 -92.827)" fill="#3b00a2"/>
      <path id="Path_1291" data-name="Path 1291" d="M304.07,91.14c-.691-.219-.742-.64-.084-.64.792,0,1.213.185,1.213.522C305.2,91.376,304.913,91.41,304.07,91.14Z" transform="translate(-217.807 -90.5)" fill="#3b00a2"/>
    </g>
    <g id="Group_32" data-name="Group 32" transform="translate(44.669 58.26)">
      <path id="Path_1292" data-name="Path 1292" d="M372.494,360.45c-1.2-.708-2.713-1.551-3.371-1.871a17.382,17.382,0,0,1-3.4-2.039c-.168-.2-.219-1.567-.219-5.528,0-5.225.051-5.73.556-5.326.118.084,2.022,1.2,4.23,2.477,2.225,1.264,4.213,2.427,4.432,2.562l.388.253v5.376c0,4.2-.051,5.376-.2,5.376a19.561,19.561,0,0,1-2.41-1.281Z" transform="translate(-265.092 -251.177)" fill="#ffd500"/>
      <path id="Path_1293" data-name="Path 1293" d="M142.946,370.292a30.682,30.682,0,0,1-2.326-2.208c-1.466-1.483-2.056-2.191-2.022-2.427.067-.421,2.882-2.157,3.506-2.157.539,0,.792.219,2.848,2.579a15.063,15.063,0,0,0,1.736,1.8c.067,0,.135.169.135.388,0,.286-.337.556-1.517,1.264C143.872,370.376,143.485,370.494,142.946,370.292Z" transform="translate(-114.671 -263.059)" fill="#ffd500"/>
      <path id="Path_1294" data-name="Path 1294" d="M117.152,354.644c-2.579-2.629-2.579-2.629-.539-3.792,1.466-.826,2.242-1.011,2.713-.607a18.283,18.283,0,0,1,1.5,1.635c.674.792,1.517,1.719,1.888,2.073.371.371.64.775.607.91a4.743,4.743,0,0,1-1.483,1.079C119.663,357.189,119.663,357.189,117.152,354.644Z" transform="translate(-99.125 -254.135)" fill="#ffd500"/>
      <path id="Path_1295" data-name="Path 1295" d="M141.6,346.6c-.725-.792-1.635-1.786-2.006-2.208-.522-.573-.657-.826-.506-.944.1-.1.876-.59,1.7-1.1a9.156,9.156,0,0,0,1.652-1.129.446.446,0,0,1,.27-.219,24.829,24.829,0,0,1,2.174,2.258l2.056,2.275-.927.556c-.522.3-1.433.876-2.022,1.247l-1.1.708Z" transform="translate(-114.956 -248.143)" fill="#ffd500"/>
      <path id="Path_1296" data-name="Path 1296" d="M93.2,340.719c-1.618-1.635-2.157-2.275-2.107-2.545.051-.388,2.983-2.174,3.573-2.174a4.513,4.513,0,0,1,1.534,1.264,39.336,39.336,0,0,1,3.286,3.657,10.819,10.819,0,0,1-2.511,1.635C95.728,343.2,95.577,343.129,93.2,340.719Z" transform="translate(-83.178 -244.828)" fill="#ffd500"/>
      <path id="Path_1297" data-name="Path 1297" d="M117.511,332.859c-.876-.961-1.786-1.955-2.039-2.242a2.381,2.381,0,0,1-.472-.607,4.6,4.6,0,0,1,.944-.674c.522-.3,1.4-.86,1.938-1.2.556-.354,1.028-.641,1.062-.641.084,0,3.219,3.522,3.691,4.146l.3.388-1.618.978c-.893.539-1.77,1.062-1.938,1.163-.185.1-.286.236-.219.286.051.067.067.118,0,.118a22.786,22.786,0,0,1-1.652-1.719Z" transform="translate(-99.029 -239.194)" fill="#ffd500"/>
      <path id="Path_1298" data-name="Path 1298" d="M72.264,329.623A23.129,23.129,0,0,1,68,325.376c0-.3.084-.371,2.174-1.567A9.121,9.121,0,0,1,71.826,323a1.312,1.312,0,0,1,.607.455c.2.253,1.062,1.2,1.888,2.124,2.006,2.208,1.938,2.09,1.433,2.477a18.489,18.489,0,0,1-2.983,1.669C72.7,329.708,72.466,329.657,72.264,329.623Z" transform="translate(-67.871 -236.21)" fill="#ffd500"/>
      <path id="Path_1299" data-name="Path 1299" d="M93.651,318.832c-2.275-2.562-2.326-2.107.4-3.741,1.618-.961,1.652-.978,1.972-.657.86.893,3.539,4.028,3.539,4.146a11.143,11.143,0,0,1-1.77,1.163,17.608,17.608,0,0,0-1.871,1.18c-.051.084-.135.152-.2.135A26.4,26.4,0,0,1,93.651,318.832Z" transform="translate(-83.764 -230.408)" fill="#ffd500"/>
      <path id="Path_1300" data-name="Path 1300" d="M71.538,307.339c-.1-.067-.843-.876-1.685-1.8-.826-.927-1.685-1.888-1.921-2.157-.371-.4-.388-.489-.185-.691a21.793,21.793,0,0,1,3.792-2.09A33.92,33.92,0,0,1,75.4,304.98a18.893,18.893,0,0,1-1.685,1.079,7.925,7.925,0,0,0-1.7,1.18C71.909,307.508,71.791,307.525,71.538,307.339Z" transform="translate(-67.617 -221.359)" fill="#ffd500"/>
      <path id="Path_1301" data-name="Path 1301" d="M175.1,227.826a17.388,17.388,0,0,1-5.41-1.921c-3.4-1.719-5.191-3.034-6.438-4.7-.59-.792-.725-1.112-.708-1.685a2.989,2.989,0,0,1,1.669-2.663c1.736-.944,5.477-3.051,6.286-3.539A9.428,9.428,0,0,1,175.761,212,9.334,9.334,0,0,1,181,213.315c3.994,2.427,7.736,4.6,8.579,4.989a10.315,10.315,0,0,0,2.343.708c2.208.388,3.758-.034,7.18-1.921,2.781-1.551,3.135-1.551,5.461-.067.826.522,1.1.775.944.876-.169.1-.084.3.32.826.624.792.624,1.129-.067,2.208-1.854,2.949-6.91,5.848-11.427,6.573a11.728,11.728,0,0,1-5.039-.3,31.849,31.849,0,0,1-3.624-1.921c-8.781-5.241-9.152-5.444-9.657-5.309-.624.169-.86.371-.758.64a32.725,32.725,0,0,0,3.59,2.343,20.38,20.38,0,0,1,3.489,2.359,14.35,14.35,0,0,1-3.539,2.191A7.367,7.367,0,0,1,175.1,227.826Zm2.376-1.618c.809-.371,1.045-.944.624-1.416a2.9,2.9,0,0,0-3.994-.017C173.081,225.921,175.727,227.05,177.48,226.208Z" transform="translate(-130.548 -162.625)" fill="#ffd500"/>
      <path id="Path_1302" data-name="Path 1302" d="M279.5,217.708a2.515,2.515,0,0,1,1.079-.708c.051,0,.1.185.1.421,0,.371-.067.421-.59.421C279.77,217.843,279.5,217.775,279.5,217.708Z" transform="translate(-208.08 -165.94)" fill="#ffd500"/>
      <path id="Path_1303" data-name="Path 1303" d="M290.5,211.853a.717.717,0,0,1,.236-.506c.185-.169.27-.135.354.135a.9.9,0,0,1,0,.522A.312.312,0,0,1,290.5,211.853Z" transform="translate(-215.372 -162.125)" fill="#ffd500"/>
      <path id="Path_1304" data-name="Path 1304" d="M239.018,200.573c-.64-.337-.59-.573.118-.573.522,0,.59.051.59.421C239.726,200.91,239.641,200.927,239.018,200.573Z" transform="translate(-180.946 -154.67)" fill="#ffd500"/>
      <path id="Path_1305" data-name="Path 1305" d="M362.441,126.96c-.185-.084-1.668-.472-3.286-.843-1.618-.388-4.2-.994-5.73-1.365-1.534-.354-3.455-.826-4.3-1.011-.826-.2-1.534-.388-1.567-.4-.287-.236,2.461-2.444,3.118-2.494a17.8,17.8,0,0,1,2.14.472c1.315.354,1.888.438,2.09.3.2-.118.674-.051,1.719.236.792.2,1.618.438,1.854.506.3.084-.067-.421-1.466-1.921s-1.9-2.14-1.9-2.461c0-.354.27-.624,1.466-1.449a8.5,8.5,0,0,1,1.669-1.028,2.541,2.541,0,0,1,.843.758c.489.607.691.742.978.657.3-.1.32-.084.135.152-.219.27.253.944,3.792,5.343,2.022,2.528,2.14,2.73,1.466,2.781a5.5,5.5,0,0,0-2.258,1.685c0,.287-.253.3-.758.084Z" transform="translate(-253.184 -98.653)" fill="#ffd500"/>
      <path id="Path_1306" data-name="Path 1306" d="M207.936,137.189c-.927-.775.809-1.618,2.107-1.028.573.27.657.607.27.994A2.271,2.271,0,0,1,207.936,137.189Z" transform="translate(-160.465 -112.218)" fill="#ffd500"/>
      <path id="Path_1307" data-name="Path 1307" d="M304.9,107.966a4.507,4.507,0,0,1-1.4-1.011c0-.118.253-.32.573-.455s.624-.337.657-.455c.067-.169.169-.135.354.1.253.32.286.32,1.567-.067,2.8-.809,4.584-1.4,6.2-2.022.927-.354,2.68-.961,3.876-1.331,1.213-.388,4.264-1.365,6.809-2.208,2.545-.826,4.7-1.517,4.786-1.517a11.6,11.6,0,0,1,2.983,1.837c0,.118-.1.185-.236.135-.118-.051-3.185.876-6.775,2.056-12.826,4.23-17.528,5.747-17.781,5.747A7.694,7.694,0,0,1,304.9,107.966Z" transform="translate(-223.99 -87.715)" fill="#ffd500"/>
      <path id="Path_1308" data-name="Path 1308" d="M292.809,93.241c-.185-.2-.607-.708-.91-1.129-.556-.725-1.3-1.669-4.432-5.646A9.354,9.354,0,0,1,286,84.258a1.12,1.12,0,0,1,.388-.691A10.507,10.507,0,0,1,288.933,82c.236,0,2.157.438,5.916,1.331,1.112.27,3.388.809,5.056,1.2,4.3,1.011,4.3,1.011,4.3,1.146a9.678,9.678,0,0,1-1.5,1.163L301.2,87.9l-2.747-.775c-1.517-.421-3.539-.994-4.483-1.264-1.82-.506-2.242-.573-2.242-.354a15.825,15.825,0,0,0,1.618,1.9c2.191,2.376,3.1,3.438,3.1,3.624a5.079,5.079,0,0,1-1.2.91,8.791,8.791,0,0,0-1.584,1.23c-.219.253-.421.455-.455.438a2.5,2.5,0,0,1-.4-.371Z" transform="translate(-212.389 -76.445)" fill="#ffd500"/>
      <path id="Path_1309" data-name="Path 1309" d="M83.522,75.507A9.216,9.216,0,0,1,78.5,73.08a2.278,2.278,0,0,1-.657-1.618,6.9,6.9,0,0,1,.034-1.584c.59-3.236,6.539-5.258,11.68-3.961,2.461.624,3.944,1.534,4.82,2.983a3.693,3.693,0,0,1-.64,4.584,8.064,8.064,0,0,1-3.118,1.669,11.482,11.482,0,0,1-3.809.388C85.275,75.575,83.808,75.558,83.522,75.507Z" transform="translate(-74.376 -65.52)" fill="#ffd500"/>
    </g>
    <g id="Group_33" data-name="Group 33" transform="translate(44.629 59.568)">
      <path id="Path_1310" data-name="Path 1310" d="M390.488,392.044c-.64-.337-.607-.472.034-.152a1.757,1.757,0,0,1,.506.337C391.027,392.347,391.01,392.33,390.488,392.044Z" transform="translate(-281.31 -283.068)" fill="#f26100"/>
      <path id="Path_1311" data-name="Path 1311" d="M383.488,388.044c-.64-.337-.607-.472.034-.152a1.758,1.758,0,0,1,.506.337C384.027,388.347,384.01,388.33,383.488,388.044Z" transform="translate(-276.669 -280.416)" fill="#f26100"/>
      <path id="Path_1312" data-name="Path 1312" d="M375.64,383.631a2.72,2.72,0,0,1-.64-.4c0-.051.3.067.674.253a2.691,2.691,0,0,1,.674.421C376.348,384.019,376.348,384.019,375.64,383.631Z" transform="translate(-271.35 -277.437)" fill="#f26100"/>
      <path id="Path_1313" data-name="Path 1313" d="M98.438,347.762a4.9,4.9,0,0,0-1.281-.236l-1.163-.1-2.006-2.039c-2.208-2.258-2.174-2.242-4.736-2.477l-1.247-.118-2.09-2.09c-2.039-2.039-2.09-2.09-2.815-2.09-.421,0-.809-.067-.86-.169a2.5,2.5,0,0,0-1.129-.169H80.084l-2.09-2.107c-1.736-1.736-2.191-2.107-2.6-2.107a5.8,5.8,0,0,1-1.2-.169c-.4-.084-1.079-.2-1.517-.253-.725-.1-.91-.219-2.73-2.056C68.674,330.3,68,329.51,68,329.274c.017-.354.017-.354.27-.017.438.607,3.674,4.129,3.792,4.129a34.347,34.347,0,0,0,3.051-1.753l.472-.3-.455-.607-.455-.624.674.64.674.624H79.7l1.1,1.146c.607.624,1.247,1.331,1.433,1.551.169.236-.287-.2-1.011-.944l-1.331-1.382-.506.253c-1.719.876-3.1,1.786-2.983,1.972a35,35,0,0,0,3.674,3.977,16.448,16.448,0,0,0,2.916-1.584l.725-.472-.472-.522-.489-.539.59.522c.573.522.657.539,2.461.624a9.7,9.7,0,0,1,2.124.219,14.5,14.5,0,0,1,1.466,1.584l1.23,1.433-1.348-1.382a10.236,10.236,0,0,0-1.5-1.4,27.844,27.844,0,0,0-3.32,1.854c-.169.169.691,1.281,2.494,3.219l1.1,1.18,1.23-.708c.674-.388,1.483-.843,1.786-1.028l.539-.337-.354-.489c-.421-.607-.27-.64.236-.067.337.388.522.438,2.225.522,2.376.118,2.494.169,1.669.59-.354.2-1.213.708-1.888,1.112-1.062.657-1.2.792-1.011,1.028.691.86,3.388,3.843,3.522,3.876a8.317,8.317,0,0,0,1.837-.927c1.315-.758,1.668-1.045,1.618-1.281-.067-.253-.034-.27.169-.1a7.714,7.714,0,0,0,2.09.287c1.551.067,1.854.118,1.854.354s.034.236.169.017c.1-.152.169-.169.169-.051a8.974,8.974,0,0,1-1.9,1.3c-1.584.927-2.039,1.112-2.68,1.112a2.179,2.179,0,0,1-.876-.118Z" transform="translate(-67.831 -241.5)" fill="#f26100"/>
      <path id="Path_1314" data-name="Path 1314" d="M371.488,381.544c-.641-.337-.607-.472.034-.152a1.754,1.754,0,0,1,.506.337C372.027,381.847,372.01,381.83,371.488,381.544Z" transform="translate(-268.714 -276.107)" fill="#f26100"/>
      <path id="Path_1315" data-name="Path 1315" d="M385.63,377.057c.32-.674.792-1.163.944-1.011.034.051-.1.3-.32.573a3.952,3.952,0,0,0-.506.792c-.051.152-.185.286-.27.286S385.462,377.411,385.63,377.057Z" transform="translate(-278.273 -272.665)" fill="#f26100"/>
      <path id="Path_1316" data-name="Path 1316" d="M371.64,378.443c-.354-.034-.64-.152-.64-.253,0-.118.236-.135.64-.067a9,9,0,0,0,1.045.1c.337,0,.371.034.169.169a.766.766,0,0,1-.421.135C372.348,378.51,371.978,378.476,371.64,378.443Z" transform="translate(-268.698 -274.034)" fill="#f26100"/>
      <path id="Path_1317" data-name="Path 1317" d="M365.7,370.055c0-1.011.017-1.416.051-.876a17.022,17.022,0,0,1,0,1.854C365.717,371.521,365.7,371.083,365.7,370.055Z" transform="translate(-265.185 -267.972)" fill="#f26100"/>
      <path id="Path_1318" data-name="Path 1318" d="M154.175,367.961A5.983,5.983,0,0,1,153.1,366.7a7.165,7.165,0,0,1,1.213,1.2,14.593,14.593,0,0,1,1.079,1.264A12.592,12.592,0,0,1,154.175,367.961Z" transform="translate(-124.243 -266.485)" fill="#f26100"/>
      <path id="Path_1319" data-name="Path 1319" d="M374,369.071a.475.475,0,0,1,.169-.354c.1-.051.169.017.169.152a.424.424,0,0,1-.169.354C374.084,369.273,374,369.206,374,369.071Z" transform="translate(-270.687 -267.814)" fill="#f26100"/>
      <path id="Path_1320" data-name="Path 1320" d="M379.472,365.412a1.4,1.4,0,0,1-.472-.32c0-.169.27-.067.674.253C380.18,365.732,380.1,365.766,379.472,365.412Z" transform="translate(-274.002 -265.368)" fill="#f26100"/>
      <path id="Path_1321" data-name="Path 1321" d="M365.545,349.143a13.57,13.57,0,0,1,.169-3.506c.27-.168.4.067.185.286a15.1,15.1,0,0,0-.017,4.786,1,1,0,0,1,0,.826,3.572,3.572,0,0,0-.236.674A23.186,23.186,0,0,1,365.545,349.143Z" transform="translate(-265.08 -252.487)" fill="#f26100"/>
      <path id="Path_1322" data-name="Path 1322" d="M141.6,351.07c-.742-.809-1.652-1.8-2.022-2.225-.59-.657-.674-.809-.472-.994.185-.169.236-.169.236,0a27.316,27.316,0,0,0,3.674,4.112c.32.152.337.219.135.388C142.965,352.5,142.661,352.267,141.6,351.07Z" transform="translate(-114.903 -253.909)" fill="#f26100"/>
      <path id="Path_1323" data-name="Path 1323" d="M383,356.986c0-.219.539-.32.86-.152.421.236.421.253-.27.253C383.27,357.087,383,357.036,383,356.986Z" transform="translate(-276.654 -259.892)" fill="#f26100"/>
      <path id="Path_1324" data-name="Path 1324" d="M153.266,345.382a24.247,24.247,0,0,0-3.843-4.045c-.169,0-.253-.067-.2-.169a.369.369,0,0,1,.236-.169,39.638,39.638,0,0,1,4.1,4.618C153.485,345.652,153.35,345.55,153.266,345.382Z" transform="translate(-121.666 -249.451)" fill="#f26100"/>
      <path id="Path_1325" data-name="Path 1325" d="M369,352.174c0-.169.876-.674,1.18-.674s.034.3-.539.573C369.017,352.393,369,352.393,369,352.174Z" transform="translate(-267.372 -256.412)" fill="#f26100"/>
      <path id="Path_1326" data-name="Path 1326" d="M117.552,337.319c-.876-.961-1.786-1.955-2.039-2.242-.539-.573-.573-.691-.219-.826.135-.051.236-.017.2.051a15.825,15.825,0,0,0,1.736,2.191c1.416,1.618,1.837,2.022,2.14,1.972.2-.034.337.017.287.084a.427.427,0,0,1-.337.152c-.135,0-.2.084-.152.169C119.473,339.376,118.934,338.853,117.552,337.319Z" transform="translate(-99.03 -244.961)" fill="#f26100"/>
      <path id="Path_1327" data-name="Path 1327" d="M133.764,336.024a3.447,3.447,0,0,0-.792-1.146c-1.348-1.567-1.567-1.938-.4-.674,1.382,1.483,1.551,1.736,1.331,1.871C133.8,336.142,133.747,336.109,133.764,336.024Z" transform="translate(-110.135 -244.442)" fill="#f26100"/>
      <path id="Path_1328" data-name="Path 1328" d="M104.9,334.6a3.519,3.519,0,0,1,.843,0c.2.034,0,.067-.472.067C104.82,334.668,104.634,334.634,104.9,334.6Z" transform="translate(-92.213 -245.192)" fill="#f26100"/>
      <path id="Path_1329" data-name="Path 1329" d="M93.369,323.249a10.269,10.269,0,0,1-1.786-2.326c.1-.067.371.118.607.4.64.775,3.084,3.539,3.354,3.758.2.169.135.421-.1.388-.051,0-.978-1.011-2.073-2.225Z" transform="translate(-83.459 -236.132)" fill="#f26100"/>
      <path id="Path_1330" data-name="Path 1330" d="M126.551,328.446c-.388-.472-.64-.64-.843-.573-.219.084-.219.067-.067-.1.169-.169.32-.118.742.287.472.438.927,1.079.775,1.079a4.541,4.541,0,0,1-.607-.691Z" transform="translate(-105.972 -240.621)" fill="#f26100"/>
      <path id="Path_1331" data-name="Path 1331" d="M79.375,324.342c-.91-.977-1.163-1.163-1.466-1.079-.236.084-.32.068-.253-.067.2-.32.758-.2,1.163.27.2.253.708.826,1.112,1.264a3.344,3.344,0,0,1,.64.809A11.437,11.437,0,0,1,79.375,324.342Z" transform="translate(-74.218 -237.529)" fill="#f26100"/>
      <path id="Path_1332" data-name="Path 1332" d="M70.613,325.336a11.2,11.2,0,0,1,2.09-1.146,12.154,12.154,0,0,1-2.157,1.281C70.5,325.471,70.512,325.4,70.613,325.336Z" transform="translate(-69.501 -238.304)" fill="#f26100"/>
      <path id="Path_1333" data-name="Path 1333" d="M107.373,319.067c-.994-1.045-1.433-1.567-1.281-1.567a16.4,16.4,0,0,1,1.213,1.264,12.561,12.561,0,0,1,1.062,1.264C108.334,320.028,107.9,319.59,107.373,319.067Z" transform="translate(-93.064 -233.872)" fill="#f26100"/>
      <path id="Path_1334" data-name="Path 1334" d="M70.736,309.394C69.3,307.86,67.5,305.8,67.5,305.686c0-.185,1.23-.978,1.331-.86.051.051,0,.135-.1.169a2.911,2.911,0,0,0-.556.354c-.354.287-.32.32,1.466,2.309,1.264,1.416,1.921,2.022,2.174,2.022.3-.017.337.034.169.286-.1.169-.236.3-.3.3A6.841,6.841,0,0,1,70.736,309.394Z" transform="translate(-67.5 -225.463)" fill="#f26100"/>
      <path id="Path_1335" data-name="Path 1335" d="M102.451,314.637a.686.686,0,0,0-.657-.253c-.337.1-.337.084-.034-.1.253-.152.388-.118.742.253.253.236.4.438.354.438A1.274,1.274,0,0,1,102.451,314.637Z" transform="translate(-90.064 -231.684)" fill="#f26100"/>
      <path id="Path_1336" data-name="Path 1336" d="M82.8,304.489a10.762,10.762,0,0,1-1.719-1.989,17.272,17.272,0,0,1,1.382,1.433C83.909,305.517,84.128,305.871,82.8,304.489Z" transform="translate(-76.493 -223.928)" fill="#f26100"/>
      <path id="Path_1337" data-name="Path 1337" d="M74,301.444a6.364,6.364,0,0,1,1.786-.944.384.384,0,0,1,.32.169c.051.084,0,.118-.135.067a2.415,2.415,0,0,0-1.112.337,3.121,3.121,0,0,1-.86.371Z" transform="translate(-71.809 -222.602)" fill="#f26100"/>
      <path id="Path_1338" data-name="Path 1338" d="M190.971,217.224a10.412,10.412,0,0,1-2.191-.708c-.843-.388-4.6-2.579-8.579-4.989a9.218,9.218,0,0,0-9.489,0c-.809.489-4.6,2.612-6.2,3.489-.455.253-1.079.64-1.382.86-.674.506-.758.506-.539,0a.874.874,0,0,0-.084-.893,17.263,17.263,0,0,1-.286-5.444c.152-.2.236-.185.64.2a17.467,17.467,0,0,0,3.573,2.157,12.275,12.275,0,0,0,1.9-.944c4.079-2.292,5.949-2.764,8.68-2.191,2.174.472,2.208.489,8.343,4.18,1.348.809,3.067,1.753,3.792,2.073a8.18,8.18,0,0,0,6.623.219,61.374,61.374,0,0,0,5.713-3.118,15.435,15.435,0,0,1,1.685-.927,11.682,11.682,0,0,0,1.888-1.163c.657-.539.792-.59.843-.354.034.152.034,1.449-.017,2.865-.084,2.461-.1,2.612-.472,2.916l-.4.32.539.674c.3.388.489.742.421.809s-.169.017-.2-.1c-.253-.708-2.174-2.225-3.624-2.848-.573-.253-.539-.27-2.933,1.062-3.371,1.854-5.612,2.359-8.241,1.854Z" transform="translate(-130.214 -161.641)" fill="#f26100"/>
      <path id="Path_1339" data-name="Path 1339" d="M238.612,197.472c-.3-.169-2.562-1.517-3.438-2.056-.152-.084-.573-.337-.961-.539-1.028-.573-1.213-.826-1.213-1.669v-.758l1.315.725c2.68,1.483,5.932,3.573,5.932,3.843,0,.1-.27.3-.59.438C238.966,197.742,239.067,197.742,238.612,197.472Z" transform="translate(-177.214 -150.973)" fill="#f26100"/>
      <path id="Path_1340" data-name="Path 1340" d="M245.91,190.279a1.746,1.746,0,0,1-.742-.691c-.169-.354-.135-.472.337-.876a2.846,2.846,0,0,1,3.657.017c.32.371.388.59.287.876C249.146,190.464,247.106,190.869,245.91,190.279Z" transform="translate(-185.22 -148.06)" fill="#f26100"/>
      <path id="Path_1341" data-name="Path 1341" d="M361.512,144.455c-.185-.034-1.618-.388-3.2-.742-5.477-1.3-7.079-1.669-7.652-1.837a1.434,1.434,0,0,0-.708-.067,7.359,7.359,0,0,1-1.584-.286l-1.466-.371.067-2.461c.067-2.629.169-3,.927-3.455l.472-.286-.4.354c-.219.185-.371.371-.337.4s.758.219,1.584.421c.843.185,2.612.607,3.961.944,7.466,1.77,9.505,2.242,9.59,2.191a17.006,17.006,0,0,1,.1,2.6v2.629l-.506.034A4.161,4.161,0,0,1,361.512,144.455Z" transform="translate(-252.722 -112.855)" fill="#f26100"/>
      <path id="Path_1342" data-name="Path 1342" d="M400.794,142.793a.509.509,0,0,1,.051-.438c.084-.152.152-.135.236.084a.438.438,0,0,1-.034.438C400.946,142.978,400.845,142.944,400.794,142.793Z" transform="translate(-288.431 -117.697)" fill="#f26100"/>
      <path id="Path_1343" data-name="Path 1343" d="M398.538,139.225c-.32-.388-.523-.725-.4-.725a2.668,2.668,0,0,1,.438.506c.388.556.371.674-.034.219Z" transform="translate(-286.663 -115.208)" fill="#f26100"/>
      <path id="Path_1344" data-name="Path 1344" d="M368.736,126.827c-.826-.253-2.326-.691-3.337-.944-1.82-.455-2.444-.758-.809-.371.624.135.91.152,1.045.017a6.484,6.484,0,0,0,.185-2.157V121.4l.59.573c.809.775,4.668,5.022,4.736,5.208.1.27-.86.135-2.41-.354Z" transform="translate(-263.822 -103.872)" fill="#f26100"/>
      <path id="Path_1345" data-name="Path 1345" d="M394.9,134.8c-.691-.86-.758-1.112-.1-.388a3.562,3.562,0,0,1,.607.792c0,.2-.051.169-.506-.4Z" transform="translate(-284.174 -112.219)" fill="#f26100"/>
      <path id="Path_1346" data-name="Path 1346" d="M351.5,133.385a2.666,2.666,0,0,1,.506-.438c.287-.2.506-.32.506-.27a2.158,2.158,0,0,1-.506.438C351.736,133.317,351.5,133.435,351.5,133.385Z" transform="translate(-255.771 -111.34)" fill="#f26100"/>
      <path id="Path_1347" data-name="Path 1347" d="M390.877,129.562c-.573-.64-.893-1.062-.775-1.062a5.072,5.072,0,0,1,.691.758C391.484,130.1,391.535,130.286,390.877,129.562Z" transform="translate(-281.346 -108.579)" fill="#f26100"/>
      <path id="Path_1348" data-name="Path 1348" d="M387.4,125.316c-.219-.287-.371-.539-.32-.573.034-.034.27.185.522.506s.4.59.337.573a1.8,1.8,0,0,1-.539-.506Z" transform="translate(-279.352 -106.086)" fill="#f26100"/>
      <path id="Path_1349" data-name="Path 1349" d="M291.863,96.017a20.154,20.154,0,0,1-2.292-2.545c-1.062-1.3-2.022-2.41-2.14-2.494a5.429,5.429,0,0,1-.826-.944L286,89.208v-2.6c0-2.966-.1-2.747,1.736-3.91,1.112-.691,1.129-.691,2.815-.27,1.567.388,1.213.438-.506.067l-1.264-.27-1.18.775a5.048,5.048,0,0,0-1.18.927c0,.152.826,1.23,4.213,5.494.657.843,1.534,1.955,1.921,2.494a5.217,5.217,0,0,0,.843.961,4.826,4.826,0,0,1,.1,1.348v1.348l-.624.3C292.369,96.151,292.183,96.168,291.863,96.017Z" transform="translate(-212.348 -77.848)" fill="#f26100"/>
      <path id="Path_1350" data-name="Path 1350" d="M383.733,120.295c-.3-.354-.489-.64-.388-.64a1.68,1.68,0,0,0,.489-.118c.27-.1.27-.084.067.169s-.185.354.152.708c.219.236.371.438.32.472-.034.034-.32-.236-.64-.59Z" transform="translate(-276.864 -102.598)" fill="#f26100"/>
      <path id="Path_1351" data-name="Path 1351" d="M317.944,117.871a2.471,2.471,0,0,1,.809-.185c.084.084-.994.438-1.3.421C317.3,118.107,317.523,117.989,317.944,117.871Z" transform="translate(-233.17 -101.405)" fill="#f26100"/>
      <path id="Path_1352" data-name="Path 1352" d="M322.74,116.315c.775-.3,1.079-.287.421,0a2.327,2.327,0,0,1-.758.236C322.268,116.551,322.42,116.433,322.74,116.315Z" transform="translate(-236.45 -100.354)" fill="#f26100"/>
      <path id="Path_1353" data-name="Path 1353" d="M83.748,89.634a9.944,9.944,0,0,1-3.573-1.348,5.958,5.958,0,0,1-2.191-2.309,54.352,54.352,0,0,1-.017-7.432,6.7,6.7,0,0,0,1.466,2.174,9.329,9.329,0,0,0,3.1,1.618,10.809,10.809,0,0,0,3.792.388c2.781,0,3.674-.169,5.444-1.045,1.938-.961,3.185-2.8,2.815-4.112-.118-.371-.1-.489.051-.438s.2,1.129.2,4.18c.017,4.736-.051,5.006-1.331,6.2C91.4,89.431,87.271,90.325,83.748,89.634Z" transform="translate(-74.361 -74.516)" fill="#f26100"/>
      <path id="Path_1354" data-name="Path 1354" d="M333.185,111.806a9.544,9.544,0,0,1,2.309-.624,10.1,10.1,0,0,1-2.326.775c-.2-.017-.185-.034.017-.152Z" transform="translate(-243.523 -97.092)" fill="#f26100"/>
      <path id="Path_1355" data-name="Path 1355" d="M342.268,109.757c.371-.287.674-.337.539-.1a.938.938,0,0,1-.472.236C341.965,109.993,341.965,109.976,342.268,109.757Z" transform="translate(-249.505 -95.988)" fill="#f26100"/>
      <path id="Path_1356" data-name="Path 1356" d="M350.389,107.2a1.791,1.791,0,0,1,.59-.152c.152,0,.135.067-.084.152a1.792,1.792,0,0,1-.59.152C350.153,107.353,350.169,107.286,350.389,107.2Z" transform="translate(-254.913 -94.359)" fill="#f26100"/>
      <path id="Path_1357" data-name="Path 1357" d="M359.74,103.819a3.634,3.634,0,0,1,.843-.219c.135,0-.017.1-.337.219a3.634,3.634,0,0,1-.843.219C359.268,104.038,359.42,103.937,359.74,103.819Z" transform="translate(-260.978 -92.072)" fill="#f26100"/>
      <path id="Path_1358" data-name="Path 1358" d="M382.843,102.632a.919.919,0,0,0-.506-.438c-.185-.051-.337-.169-.337-.253s.3.017.674.219.674.472.674.59C383.348,103.071,383.045,102.986,382.843,102.632Z" transform="translate(-275.991 -90.953)" fill="#f26100"/>
      <path id="Path_1359" data-name="Path 1359" d="M377.045,99.507a1.423,1.423,0,0,0-.674-.27c-.27-.017-.287-.034-.067-.1.27-.067,1.315.371,1.315.539C377.618,99.827,377.365,99.743,377.045,99.507Z" transform="translate(-272.114 -89.108)" fill="#f26100"/>
      <path id="Path_1360" data-name="Path 1360" d="M337.909,92.253c-.185-.135-.253-.253-.152-.253.32,0,.725.2.725.354,0,.219-.2.185-.573-.1Z" transform="translate(-246.63 -84.382)" fill="#f26100"/>
      <path id="Path_1361" data-name="Path 1361" d="M332.967,91.235c-.337-.1-.354-.135-.084-.135a4.538,4.538,0,0,1,.843.135c.455.118.455.135.084.135A3.659,3.659,0,0,1,332.967,91.235Z" transform="translate(-243.305 -83.786)" fill="#f26100"/>
      <path id="Path_1362" data-name="Path 1362" d="M327.551,89.8c-.657-.3-.371-.3.59-.017.522.169.624.253.337.253A3.57,3.57,0,0,1,327.551,89.8Z" transform="translate(-239.659 -82.77)" fill="#f26100"/>
      <path id="Path_1363" data-name="Path 1363" d="M321.009,88.3c-.236-.118-.135-.135.337-.051a3.344,3.344,0,0,1,.742.152C322.239,88.533,321.329,88.432,321.009,88.3Z" transform="translate(-235.477 -81.859)" fill="#f26100"/>
      <path id="Path_1364" data-name="Path 1364" d="M315.967,87.235c-.337-.1-.354-.135-.084-.135a4.539,4.539,0,0,1,.843.135c.455.118.455.135.084.135A3.657,3.657,0,0,1,315.967,87.235Z" transform="translate(-232.035 -81.134)" fill="#f26100"/>
      <path id="Path_1365" data-name="Path 1365" d="M310.608,85.92c-.3-.1-.522-.2-.472-.253a1.942,1.942,0,0,1,.893.169C311.922,86.106,311.535,86.173,310.608,85.92Z" transform="translate(-228.345 -80.173)" fill="#f26100"/>
      <path id="Path_1366" data-name="Path 1366" d="M303.836,84.247c-.185-.118-.067-.135.421-.051.843.135.978.236.32.236A1.5,1.5,0,0,1,303.836,84.247Z" transform="translate(-224.119 -79.174)" fill="#f26100"/>
      <path id="Path_1367" data-name="Path 1367" d="M78.05,76.115a1.858,1.858,0,0,1,.236-.758c.3-.539.3-.421,0,.421C78.151,76.148,78.05,76.3,78.05,76.115Z" transform="translate(-74.494 -73.131)" fill="#f26100"/>
      <path id="Path_1368" data-name="Path 1368" d="M124.836,73.029c-.3-.455-.4-.674-.219-.522.337.287.994,1.315.843,1.315A3.45,3.45,0,0,1,124.836,73.029Z" transform="translate(-105.303 -71.427)" fill="#f26100"/>
      <path id="Path_1369" data-name="Path 1369" d="M80.5,71.641a3.352,3.352,0,0,1,.624-.556c.337-.253.556-.388.489-.27C81.477,71.034,80.5,71.759,80.5,71.641Z" transform="translate(-76.118 -70.309)" fill="#f26100"/>
      <path id="Path_1370" data-name="Path 1370" d="M120.756,69.838l-.506-.438.556.371a2.271,2.271,0,0,1,.539.438C121.345,70.327,121.278,70.293,120.756,69.838Z" transform="translate(-102.469 -69.4)" fill="#f26100"/>
    </g>
  </g>
</svg>
